<svg xmlns="http://www.w3.org/2000/svg" xmlns:xlink="http://www.w3.org/1999/xlink" viewBox="0 0 24 24"><defs><style>.cls-1{fill:url(#未命名的渐变);}.cls-2{fill:#662e00;}.cls-3{fill:#f0fbff;}.cls-4{fill:#f0f1f5;}</style><radialGradient id="未命名的渐变" cx="-301.63" cy="422.05" r="0.77" gradientTransform="matrix(24, 0, 0, -24, 7251.22, 10137.11)" gradientUnits="userSpaceOnUse"><stop offset="0" stop-color="#ffe5a3"/><stop offset="1" stop-color="#ffad29"/></radialGradient></defs><title>生气</title><g id="图层_2" data-name="图层 2"><g id="图层_1-2" data-name="图层 1"><path id="路径" class="cls-1" d="M24,12A12,12,0,1,1,12,0,12,12,0,0,1,24,12"/><path id="形状" class="cls-2" d="M13.33,8.67h-.11a.67.67,0,0,1-.54-.77A5.38,5.38,0,0,1,18,3.33a.67.67,0,0,1,0,1.34,4.08,4.08,0,0,0-4,3.44A.67.67,0,0,1,13.33,8.67Zm-2.66,0A.67.67,0,0,1,10,8.11,4.12,4.12,0,0,0,6,4.67.67.67,0,0,1,6,3.33a5.38,5.38,0,0,1,5.32,4.56.67.67,0,0,1-.54.77ZM7.61,11.93A5.12,5.12,0,0,1,5,11.22a.67.67,0,0,1,.74-1.11,4.15,4.15,0,0,0,4,0,.68.68,0,0,1,.9.3.66.66,0,0,1-.3.89A6,6,0,0,1,7.61,11.93Zm8.78,0a6,6,0,0,1-2.69-.67.66.66,0,0,1-.3-.89.68.68,0,0,1,.9-.3,4.15,4.15,0,0,0,4,0A.67.67,0,0,1,19,11.22a5.12,5.12,0,0,1-2.65.71ZM17.33,18a.65.65,0,0,1-.53-.27,6.59,6.59,0,0,0-4.8-2.4,6.57,6.57,0,0,0-4.8,2.41.67.67,0,0,1-1.07-.81A7.83,7.83,0,0,1,12,14a7.83,7.83,0,0,1,5.87,2.93.67.67,0,0,1-.14.94.66.66,0,0,1-.4.13Z"/><path class="cls-3" d="M10.26,13.39a.67.67,0,0,0-.83.26L6.1,19a.69.69,0,0,0,0,.68.67.67,0,0,0,.59.34h2a.66.66,0,0,0,.64-.51l1.34-5.33a.66.66,0,0,0-.39-.77ZM17.9,19l-3.33-5.33a.67.67,0,0,0-.83-.26.66.66,0,0,0-.39.77l1.34,5.33a.66.66,0,0,0,.64.51h2a.67.67,0,0,0,.59-.34.69.69,0,0,0,0-.68Z"/><path class="cls-4" d="M21.32,20.12s0-.08,0-.12a2,2,0,0,0-2-2,2,2,0,0,0-1.65.87,2.6,2.6,0,0,0-1-.2,2.67,2.67,0,1,0,2.19,4.18,2,2,0,1,0,2.46-2.73Zm-14-1.45a2.6,2.6,0,0,0-1,.2A2,2,0,0,0,4.67,18a2,2,0,0,0-2,2s0,.08,0,.12a2,2,0,1,0,2.46,2.73,2.67,2.67,0,1,0,2.19-4.18Z"/></g></g></svg>