<svg xmlns="http://www.w3.org/2000/svg" xmlns:xlink="http://www.w3.org/1999/xlink" viewBox="0 0 24 24"><defs><style>.cls-1{fill:url(#未命名的渐变);}.cls-2{fill:#ff8987;}.cls-3{fill:#662e00;}</style><radialGradient id="未命名的渐变" cx="-239.08" cy="365.85" r="0.77" gradientTransform="matrix(24, 0, 0, -24, 5750, 8788.19)" gradientUnits="userSpaceOnUse"><stop offset="0" stop-color="#ffe5a3"/><stop offset="1" stop-color="#ffad29"/></radialGradient></defs><title>可爱</title><g id="图层_2" data-name="图层 2"><g id="图层_1-2" data-name="图层 1"><g id="页面-1"><path id="路径" class="cls-1" d="M24,12A12,12,0,1,1,12,0,12,12,0,0,1,24,12"/><circle id="椭圆形" class="cls-2" cx="4.67" cy="12" r="3.33"/><circle class="cls-2" cx="19.33" cy="12" r="3.33"/><path id="形状" class="cls-3" d="M18.22,14.42a.33.33,0,0,0-.42,0A10.85,10.85,0,0,1,12,16.33,10.89,10.89,0,0,1,6.2,14.4a.33.33,0,0,0-.42,0,.34.34,0,0,0-.07.42A7.68,7.68,0,0,0,12,18.33a7.68,7.68,0,0,0,6.29-3.49.34.34,0,0,0-.07-.42ZM5.33,10A.59.59,0,0,1,5,9.93a.67.67,0,0,1-.3-.9A3.56,3.56,0,0,1,8,7.33,3.53,3.53,0,0,1,11.26,9a.66.66,0,0,1-.3.89.68.68,0,0,1-.89-.29A2.25,2.25,0,0,0,8,8.67a2.27,2.27,0,0,0-2.07,1A.66.66,0,0,1,5.33,10Zm13.34,0a.66.66,0,0,1-.6-.37,2.28,2.28,0,0,0-2.07-1,2.25,2.25,0,0,0-2.07,1,.68.68,0,0,1-.9.28A.66.66,0,0,1,12.74,9,3.56,3.56,0,0,1,16,7.33,3.53,3.53,0,0,1,19.26,9a.66.66,0,0,1-.59,1Z"/></g></g></g></svg>