<svg xmlns="http://www.w3.org/2000/svg" viewBox="0 0 23.35 22.98"><defs><style>.cls-1{fill:#f83640;}.cls-2{fill:#ff8987;}.cls-3{fill:#ab1325;}.cls-4{fill:#9080ff;}.cls-5{fill:#56a32c;}.cls-6{fill:#ffcc4d;}</style></defs><title>38-庆祝</title><g id="图层_2" data-name="图层 2"><g id="图层_1-2" data-name="图层 1"><g id="页面-1"><path id="路径" class="cls-1" d="M7.54,4.48a.78.78,0,0,0-.17.26h0L.09,21.12h0c-.13.26.09.79.56,1.25s1,.69,1.25.56h0L18.3,15.67h0a.78.78,0,0,0,.26-.17c1-1-.63-4.3-3.67-7.34S8.56,3.47,7.54,4.48Z"/><path class="cls-2" d="M8.43,7.41.27,20.71l-.18.41h0c-.13.26.09.79.56,1.25a2.14,2.14,0,0,0,.46.36L11,10.65Z"/><path class="cls-3" d="M14.93,8.1c3,3,4.71,6.26,3.75,7.21s-4.18-.72-7.22-3.75S6.75,5.3,7.71,4.34s4.19.73,7.22,3.76Z"/><path class="cls-4" d="M12.06,8.45a.63.63,0,0,1-.48.14A2.38,2.38,0,0,1,10.21,8a1.41,1.41,0,0,1-.47-1.2c.08-.78.86-1.49,2.18-1.34.51,0,.74-.11.75-.19S12.49,5,12,4.94a2.38,2.38,0,0,1-1.37-.56,1.45,1.45,0,0,1-.48-1.21c.09-.78.86-1.49,2.18-1.34A1.07,1.07,0,0,0,13,1.74c.07,0,.09-.08.09-.1s-.17-.29-.69-.35A.64.64,0,0,1,11.8.58.64.64,0,0,1,12.51,0c1.32.15,1.93,1,1.84,1.78s-.85,1.48-2.18,1.34a1,1,0,0,0-.65.09c-.07,0-.1.08-.1.1s.18.29.7.34c1.32.15,1.92,1,1.84,1.78s-.86,1.48-2.18,1.34a1.1,1.1,0,0,0-.66.08c-.06,0-.09.08-.09.11s.18.28.69.34A.65.65,0,0,1,12.3,8a.65.65,0,0,1-.24.43Z"/><path class="cls-5" d="M19.89,14.45c1.28-.36,2.16.21,2.37,1S22,17.1,20.74,17.46c-.5.14-.65.38-.63.46s.27.2.77.06c1.28-.36,2.16.21,2.37,1S23,20.64,21.73,21c-.5.14-.65.38-.63.45s.28.2.77.06a.65.65,0,0,1,.8.45.64.64,0,0,1-.45.8,1.77,1.77,0,0,1-2.37-1c-.21-.75.25-1.69,1.53-2.05.5-.14.65-.38.62-.46s-.27-.2-.77-.06c-1.28.36-2.16-.21-2.37-1s.24-1.7,1.52-2.06c.5-.14.65-.38.63-.45s-.27-.2-.77-.06a.66.66,0,0,1-.8-.45.64.64,0,0,1,.45-.8Z"/><path class="cls-4" d="M14.92,12.7a.65.65,0,0,1-.51-.24.66.66,0,0,1,.1-.92,11.49,11.49,0,0,1,8.28-2.08.65.65,0,1,1-.18,1.29,10.26,10.26,0,0,0-7.29,1.81.67.67,0,0,1-.4.14Z"/><path class="cls-5" d="M3.73,10l-.18,0a.64.64,0,0,1-.44-.8c.74-2.45,1.4-6.36.58-7.37a.55.55,0,0,0-.54-.21c-.61,0-.55,1.33-.55,1.34A.65.65,0,0,1,1.3,3C1.24,2.14,1.52.41,3.05.3A1.87,1.87,0,0,1,4.71,1c1.53,1.92,0,7.47-.36,8.56A.64.64,0,0,1,3.73,10Z"/><circle id="椭圆形" class="cls-5" cx="16.54" cy="5.79" r="1"/><circle class="cls-4" cx="1.3" cy="11.3" r="1.3"/><circle class="cls-5" cx="21.08" cy="12.27" r="1"/><circle class="cls-5" cx="15.24" cy="20.06" r="1"/><circle class="cls-6" cx="18.16" cy="2.22" r="1.3"/><circle class="cls-6" cx="21.08" cy="5.14" r="1"/><circle class="cls-6" cx="19.14" cy="7.73" r="1"/><circle class="cls-6" cx="4.86" cy="14.87" r="1"/></g></g></g></svg>