<svg xmlns="http://www.w3.org/2000/svg" viewBox="0 0 24 24"><defs><style>.cls-1{fill:#ffcc4d;}.cls-2{fill:#662e00;}.cls-3{fill:#4db5ff;}.cls-4{fill:#c7edff;}</style></defs><title>17-冒冷汗</title><g id="图层_2" data-name="图层 2"><g id="图层_1-2" data-name="图层 1"><path id="路径" class="cls-1" d="M24,12A12,12,0,1,1,12,0,12,12,0,0,1,24,12"/><ellipse id="椭圆形" class="cls-2" cx="7.67" cy="11" rx="1.67" ry="2.33"/><ellipse class="cls-2" cx="16.33" cy="11" rx="1.67" ry="2.33"/><path class="cls-2" d="M15.66,18.59A3.93,3.93,0,0,0,12,15.67a3.93,3.93,0,0,0-3.66,2.92A.34.34,0,0,0,8.5,19a.35.35,0,0,0,.4,0s.67-.58,3.1-.58,3.08.56,3.1.58a.35.35,0,0,0,.23.09.33.33,0,0,0,.17,0A.35.35,0,0,0,15.66,18.59Z"/><path class="cls-3" d="M6.67,20A3.34,3.34,0,0,1,0,20c0-1.84,2.67-6.67,3.33-6.67S6.67,18.16,6.67,20Z"/><path class="cls-4" d="M12,7.33c5.83,0,10.69,3,11.77,7A11.85,11.85,0,0,0,24,12,12,12,0,0,0,0,12a11.85,11.85,0,0,0,.23,2.32C1.31,10.34,6.17,7.33,12,7.33Z"/><path id="形状" class="cls-2" d="M20,8a5.91,5.91,0,0,1-5.26-3A.66.66,0,0,1,15,4.07a.68.68,0,0,1,.9.3A4.61,4.61,0,0,0,20,6.67.67.67,0,1,1,20,8ZM4,8A.67.67,0,1,1,4,6.67c3.39,0,4-2.08,4-2.17A.66.66,0,0,1,8.83,4a.65.65,0,0,1,.48.8C9.28,5,8.47,8,4,8Z"/></g></g></svg>