<svg xmlns="http://www.w3.org/2000/svg" xmlns:xlink="http://www.w3.org/1999/xlink" viewBox="0 0 24 24"><defs><style>.cls-1{fill:url(#未命名的渐变);}.cls-2{fill:#292f33;}.cls-3{fill:#fff;}</style><radialGradient id="未命名的渐变" cx="-239.22" cy="365.85" r="0.68" gradientTransform="matrix(24, 0, 0, -24, 5753.36, 8788.19)" gradientUnits="userSpaceOnUse"><stop offset="0" stop-color="#ff6264"/><stop offset="1" stop-color="#f83640"/></radialGradient></defs><title>10-骂咒</title><g id="图层_2" data-name="图层 2"><g id="图层_1-2" data-name="图层 1"><path id="路径" class="cls-1" d="M24,12A12,12,0,1,1,12,0,12,12,0,0,1,24,12"/><path id="形状" class="cls-2" d="M10.47,10.2A9.08,9.08,0,0,0,4.67,8a.67.67,0,1,0,0,1.33,9.5,9.5,0,0,1,2.65.49,2.76,2.76,0,0,0-.65,1.85C6.67,13,7.41,14,8.33,14S10,13,10,11.67c0-.12,0-.23,0-.34h0a.66.66,0,0,0,.47-1.13ZM19.33,8a9.08,9.08,0,0,0-5.8,2.2A.66.66,0,0,0,14,11.33h0c0,.11,0,.22,0,.34C14,13,14.75,14,15.67,14s1.66-1,1.66-2.33a2.76,2.76,0,0,0-.65-1.85,9.5,9.5,0,0,1,2.65-.49.67.67,0,1,0,0-1.33Z"/><path class="cls-2" d="M19.83,22H4.17a1.51,1.51,0,0,1-1.5-1.51V16.67a1.51,1.51,0,0,1,1.5-1.51H19.83a1.51,1.51,0,0,1,1.5,1.51v3.82A1.51,1.51,0,0,1,19.83,22Z"/><path class="cls-3" d="M5.23,18.09H4.68a.31.31,0,0,1,0-.62h.64l.13-1c0-.24.13-.32.32-.32a.28.28,0,0,1,.29.26.86.86,0,0,1,0,.16l-.13.94h.61l.14-1c0-.24.13-.31.32-.31a.27.27,0,0,1,.29.25.86.86,0,0,1,0,.16l-.13.94h.55a.31.31,0,0,1,0,.62H7.05l-.1.74H7.5a.31.31,0,0,1,0,.62H6.86L6.72,20.5c0,.23-.12.31-.31.31a.28.28,0,0,1-.3-.26.47.47,0,0,1,0-.16l.12-.94h-.6L5.51,20.5c0,.23-.13.31-.32.31a.28.28,0,0,1-.29-.26.92.92,0,0,1,0-.16L5,19.45H4.49a.31.31,0,0,1,0-.62h.64Zm.51.74h.6l.1-.74h-.6Zm3.08-1.7a1,1,0,1,1,1,1A1,1,0,0,1,8.82,17.13Zm1.3,0a.33.33,0,1,0-.66,0,.33.33,0,1,0,.66,0Zm1.54-.89c.09-.16.15-.2.3-.2a.37.37,0,0,1,.37.36.33.33,0,0,1-.05.19l-2.13,4.08c-.1.14-.13.21-.29.21a.39.39,0,0,1-.36-.35.49.49,0,0,1,.07-.24Zm-.61,3.56a1,1,0,1,1,1,1.05A1,1,0,0,1,11.05,19.8Zm1.3,0a.33.33,0,1,0-.66,0,.33.33,0,1,0,.66,0Zm1.66.54a.5.5,0,1,1,.5.51A.5.5,0,0,1,14,20.34Zm0-3.82a.46.46,0,0,1,.91,0V19a.46.46,0,0,1-.91,0Zm5.38,4.36a.32.32,0,0,1-.28-.13l-.49-.54,0,.05a1.9,1.9,0,0,1-1.35.62,1.37,1.37,0,0,1-1.49-1.39,1.7,1.7,0,0,1,.92-1.41l.08,0L16.72,18a1.21,1.21,0,0,1-.4-.87A1.13,1.13,0,0,1,17.58,16c.51,0,1.23.31,1.23,1A1.38,1.38,0,0,1,18,18.15L18,18.2l.78.91.29-.37c.17-.2.27-.28.44-.28a.31.31,0,0,1,.28.35,1.21,1.21,0,0,1-.33.6l-.2.23.47.57a.38.38,0,0,1,.12.29.39.39,0,0,1-.38.38Zm-2.29-2.36a1.06,1.06,0,0,0-.58.88.69.69,0,0,0,.73.73,1.14,1.14,0,0,0,.85-.41l0,0-1-1.19,0,0Zm.44-1.85a.44.44,0,0,0-.44.41c0,.24.11.38.35.63l0,0,0,0c.33-.17.5-.37.5-.59a.45.45,0,0,0-.49-.46Z"/></g></g></svg>