<svg xmlns="http://www.w3.org/2000/svg" xmlns:xlink="http://www.w3.org/1999/xlink" viewBox="0 0 24 24"><defs><style>.cls-1{fill:url(#未命名的渐变);}.cls-2{fill:#662e00;}</style><radialGradient id="未命名的渐变" cx="-239.22" cy="365.85" r="0.77" gradientTransform="matrix(24, 0, 0, -24, 5753.36, 8788.19)" gradientUnits="userSpaceOnUse"><stop offset="0" stop-color="#ffe5a3"/><stop offset="1" stop-color="#ffad29"/></radialGradient></defs><title>难过</title><g id="图层_2" data-name="图层 2"><g id="图层_1-2" data-name="图层 1"><g id="页面-1"><g id="第一排"><path id="路径" class="cls-1" d="M24,12A12,12,0,1,1,12,0,12,12,0,0,1,24,12"/><path id="形状" class="cls-2" d="M15.66,19.25A3.93,3.93,0,0,0,12,16.33a3.93,3.93,0,0,0-3.66,2.92.35.35,0,0,0,.16.37.37.37,0,0,0,.4,0S9.57,19,12,19s3.08.55,3.1.58a.35.35,0,0,0,.23.09.35.35,0,0,0,.33-.42ZM19.33,8a5.91,5.91,0,0,1-5.26-3,.66.66,0,0,1,1.19-.59,4.63,4.63,0,0,0,4.07,2.3.67.67,0,1,1,0,1.33ZM4.67,8a.67.67,0,1,1,0-1.33c3.39,0,4-2.08,4-2.17A.67.67,0,0,1,10,4.83C10,5,9.14,8,4.67,8Z"/><ellipse id="椭圆形" class="cls-2" cx="8" cy="11" rx="1.67" ry="2.33"/><ellipse class="cls-2" cx="16" cy="11" rx="1.67" ry="2.33"/></g></g></g></g></svg>