<svg xmlns="http://www.w3.org/2000/svg" xmlns:xlink="http://www.w3.org/1999/xlink" viewBox="0 0 24 24"><defs><style>.cls-1{fill:url(#未命名的渐变);}.cls-2{fill:#662e00;}.cls-3{fill:#f4f7f9;}.cls-4{fill:#323f59;}.cls-5{fill:#69758c;}.cls-6{fill:#c7edff;}</style><radialGradient id="未命名的渐变" cx="-271.46" cy="374.17" r="0.77" gradientTransform="matrix(24, 0, 0, -24, 6527.04, 8987.99)" gradientUnits="userSpaceOnUse"><stop offset="0" stop-color="#ffe5a3"/><stop offset="1" stop-color="#ffad29"/></radialGradient></defs><title>24-探索</title><g id="图层_2" data-name="图层 2"><g id="图层_1-2" data-name="图层 1"><path id="路径" class="cls-1" d="M24,12A12,12,0,1,1,12,0,12,12,0,0,1,24,12"/><ellipse id="椭圆形" class="cls-2" cx="8.12" cy="9.81" rx="1.76" ry="2.47"/><circle class="cls-3" cx="16.59" cy="9.53" r="4.59"/><path class="cls-2" d="M9.88,6.63a.72.72,0,0,1-.56-.28A3,3,0,0,0,7.26,5a2.57,2.57,0,0,0-1.82.77.71.71,0,0,1-1-1A4,4,0,0,1,7.36,3.54a4.32,4.32,0,0,1,3.09,2,.71.71,0,0,1-.14,1A.76.76,0,0,1,9.88,6.63Z"/><path class="cls-4" d="M21.88,24a.7.7,0,0,1-.7-.71V9.88a.7.7,0,0,1,.7-.7.7.7,0,0,1,.71.7V23.29A.71.71,0,0,1,21.88,24Z"/><path id="形状" class="cls-5" d="M21.88,8.47h-.1a5.3,5.3,0,1,0-.19,2.78,1.36,1.36,0,0,0,.29,0,1.41,1.41,0,0,0,0-2.82Zm-5.29,4.94a3.88,3.88,0,1,1,3.88-3.88A3.88,3.88,0,0,1,16.59,13.41Z"/><path class="cls-2" d="M14.12,19.06A.72.72,0,0,1,13.8,19a3.82,3.82,0,0,0-3.6,0,.7.7,0,0,1-.95-.31.71.71,0,0,1,.32-1,5.16,5.16,0,0,1,4.86,0,.71.71,0,0,1,.32,1,.69.69,0,0,1-.63.39Z"/><path class="cls-6" d="M18.7,6.27a3.88,3.88,0,0,0-5.37,5.37ZM14.93,13a4,4,0,0,0,1.66.37,3.88,3.88,0,0,0,3.88-3.88,4,4,0,0,0-.37-1.66Z"/></g></g></svg>