<svg xmlns="http://www.w3.org/2000/svg" viewBox="0 0 21.82 24"><defs><style>.cls-1{fill:#ab1325;}.cls-2{fill:#ff9500;}.cls-3{fill:#ffd57a;}.cls-4{fill:#f83640;}.cls-5{fill:#ff8987;}</style></defs><title>51-薯条</title><g id="图层_2" data-name="图层 2"><g id="图层_1-2" data-name="图层 1"><g id="页面-1"><path id="路径" class="cls-1" d="M10.91,0C4.88,0,0,3.27,0,9.09c0,0,0,.55.09,1.1.19,0,10.82,8.72,10.82,8.72s10.62-8.73,10.81-8.72c0-.36.1-1,.1-1.1C21.82,3.27,16.93,0,10.91,0Z"/><path class="cls-2" d="M19.76,6.92a1,1,0,0,0-.67.14,1.73,1.73,0,0,0-.15-.8l.28-.83a1.08,1.08,0,0,0-.69-1.37,1.07,1.07,0,0,0-.75,0,1.09,1.09,0,0,0-1.2-.8,1,1,0,0,0-.25.07,1.11,1.11,0,0,0-.91-.8,1.09,1.09,0,0,0-1.23.94L14,5.17a1.07,1.07,0,0,0-1-.44,1.08,1.08,0,0,0-1,.78L12,5a1.09,1.09,0,0,0-2.17.2h0a1.08,1.08,0,0,0-.44-1l-.3-1.52a1.09,1.09,0,0,0-2.14.43l.52,2.61L7.17,6.9,6.12,4a1.09,1.09,0,0,0-2,.75L4.87,7a1.1,1.1,0,0,0-.47.77L4.22,9.25,4,7.82a1.09,1.09,0,0,0-2.16.36L3,14.94h17c0-.09.81-6.82.81-6.82a1.08,1.08,0,0,0-1-1.2Z"/><path id="形状" class="cls-3" d="M17.81,4.22l0-.14a1.1,1.1,0,0,0-1.2-.8,1,1,0,0,0-.25.07,1.08,1.08,0,0,0-.68,1.16l1.42,10.43h2.2ZM14.18,5.74A1.1,1.1,0,0,0,14,5.17a1.07,1.07,0,0,0-1-.44,1.08,1.08,0,0,0-1,.78A1,1,0,0,0,12,5.9l.64,9v.09h2.19v0l-.65-9.18Zm-8.57,1A1.12,1.12,0,0,0,4.87,7a1.1,1.1,0,0,0-.47.77l-.84,7.22H5.75l.82-7A1.1,1.1,0,0,0,5.61,6.76ZM9.07,2.7a1.09,1.09,0,1,0-2.14.42L9.29,14.94h2.23L9.07,2.7Z"/><path class="cls-4" d="M18.91,10.91c0,2-3.18,3.64-8,3.64s-8-1.63-8-3.64c0-.8-1.38-.73-2.18-.73H.09c.05.46,1.36,10.9,1.36,10.9A2.91,2.91,0,0,0,4.36,24H17.45a2.91,2.91,0,0,0,2.91-2.91l1.36-10.9h-.63C20.29,10.18,18.91,10.11,18.91,10.91Z"/><circle id="椭圆形" class="cls-5" cx="10.91" cy="18.91" r="2.91"/></g></g></g></svg>