<svg xmlns="http://www.w3.org/2000/svg" viewBox="0 0 23 21.85"><defs><style>.cls-1{fill:#fdd888;}.cls-2{fill:#fcab40;}.cls-3{fill:#f83640;}</style></defs><title>37-礼物</title><g id="图层_2" data-name="图层 2"><g id="图层_1-2" data-name="图层 1"><path id="路径" class="cls-1" d="M21.08,19.29a2.56,2.56,0,0,1-2.55,2.56H4.47a2.56,2.56,0,0,1-2.55-2.56V8.43A2.56,2.56,0,0,1,4.47,5.88H18.53a2.56,2.56,0,0,1,2.55,2.55Z"/><path class="cls-1" d="M23,6.51a2.56,2.56,0,0,1-2.56,2.56H2.56A2.56,2.56,0,1,1,2.56,4H20.44A2.56,2.56,0,0,1,23,6.51Z"/><polygon class="cls-2" points="1.92 9.07 21.08 9.07 21.08 10.35 1.92 10.35 1.92 9.07"/><path class="cls-3" d="M12.14,1.4H10.86A1.92,1.92,0,0,0,8.94,3.32V21.85h5.12V3.32A1.92,1.92,0,0,0,12.14,1.4Z"/><path id="形状" class="cls-3" d="M10.22,4c.71,0,.81-.33.23-.73L6.16.22A1.15,1.15,0,0,0,4.48.6L3.19,2.85C2.84,3.46,3.13,4,3.83,4Zm2.56,0c-.71,0-.81-.33-.23-.73l4.29-3A1.15,1.15,0,0,1,18.52.6l1.29,2.25c.35.61.06,1.11-.64,1.11Z"/></g></g></svg>