<svg xmlns="http://www.w3.org/2000/svg" xmlns:xlink="http://www.w3.org/1999/xlink" viewBox="0 0 24 24"><defs><style>.cls-1{fill:url(#未命名的渐变);}.cls-2{fill:#662e00;}.cls-3{fill:#fff;}</style><radialGradient id="未命名的渐变" cx="-282.63" cy="405.1" r="0.77" gradientTransform="matrix(24, 0, 0, -24, 6795.21, 9730.14)" gradientUnits="userSpaceOnUse"><stop offset="0" stop-color="#ffe5a3"/><stop offset="1" stop-color="#ffad29"/></radialGradient></defs><title>26-鬼脸</title><g id="图层_2" data-name="图层 2"><g id="图层_1-2" data-name="图层 1"><g id="页面-1"><path id="路径" class="cls-1" d="M24,12A12,12,0,1,1,12,0,12,12,0,0,1,24,12"/><ellipse id="椭圆形" class="cls-2" cx="8" cy="9" rx="1.67" ry="2.33"/><ellipse class="cls-2" cx="16" cy="9" rx="1.67" ry="2.33"/><path class="cls-3" d="M16.67,14a2.67,2.67,0,0,1,0,5.33H7.33a2.67,2.67,0,0,1,0-5.33Z"/><path id="形状" class="cls-2" d="M16.67,13.33H7.33a3.34,3.34,0,0,0,0,6.67h9.34a3.34,3.34,0,0,0,0-6.67Zm0,1.34a2,2,0,0,1,2,1.66h-2.3V14.67Zm-1,0v1.66h-2V14.67Zm-2.67,0v1.66H11V14.67Zm-2.67,0v1.66h-2V14.67Zm-3,0h.34v1.66H5.37A2,2,0,0,1,7.33,14.67Zm0,4a2,2,0,0,1-2-1.67h2.3v1.67Zm1,0V17h2v1.67Zm2.67,0V17h2v1.67Zm2.67,0V17h2v1.67Zm3,0h-.34V17h2.3A2,2,0,0,1,16.67,18.67Z"/></g></g></g></svg>