<svg xmlns="http://www.w3.org/2000/svg" xmlns:xlink="http://www.w3.org/1999/xlink" viewBox="0 0 24 24"><defs><style>.cls-1{fill:url(#未命名的渐变);}.cls-2{fill:#662e00;}.cls-3{fill:#fff;}</style><radialGradient id="未命名的渐变" cx="-206.32" cy="370.65" r="0.77" gradientTransform="matrix(24, 0, 0, -24, 4963.69, 8903.39)" gradientUnits="userSpaceOnUse"><stop offset="0" stop-color="#ffe5a3"/><stop offset="1" stop-color="#ffad29"/></radialGradient></defs><title>13-开心</title><g id="图层_2" data-name="图层 2"><g id="图层_1-2" data-name="图层 1"><circle id="椭圆形" class="cls-1" cx="12" cy="12" r="12"/><path id="路径" class="cls-2" d="M12,14a27.85,27.85,0,0,1-6-.67c-.45-.08-1.33,0-1.33,1.34,0,2.66,3.06,6,7.33,6s7.33-3.34,7.33-6c0-1.34-.88-1.42-1.33-1.34A27.85,27.85,0,0,1,12,14Z"/><path class="cls-3" d="M6,14.67a21.13,21.13,0,0,0,6,.66,21.13,21.13,0,0,0,6-.66s-1.33,2.66-6,2.66S6,14.67,6,14.67Z"/><ellipse class="cls-2" cx="8" cy="9" rx="1.67" ry="2.33"/><ellipse class="cls-2" cx="16" cy="9" rx="1.67" ry="2.33"/></g></g></svg>