<svg xmlns="http://www.w3.org/2000/svg" xmlns:xlink="http://www.w3.org/1999/xlink" viewBox="0 0 24 24"><defs><style>.cls-1{fill:url(#未命名的渐变);}.cls-2{fill:#662e00;}.cls-3{fill:#ffad29;}.cls-4{fill:#f8353f;}</style><radialGradient id="未命名的渐变" cx="-180.87" cy="367.58" r="0.77" gradientTransform="matrix(24, 0, 0, -24, 4352.79, 8829.82)" gradientUnits="userSpaceOnUse"><stop offset="0" stop-color="#ffe5a3"/><stop offset="1" stop-color="#ffad29"/></radialGradient></defs><title>爱心</title><g id="图层_2" data-name="图层 2"><g id="图层_1-2" data-name="图层 1"><g id="页面-1"><g id="第一排"><circle id="椭圆形" class="cls-1" cx="12" cy="12" r="12"/><path id="形状" class="cls-2" d="M10.67,11.31a.69.69,0,0,1-.64-.46c-.13-.4-.67-1.54-1.36-1.54S7.41,10.52,7.3,10.85a.66.66,0,0,1-.84.42A.67.67,0,0,1,6,10.43C6.12,10.18,6.9,8,8.67,8s2.55,2.21,2.63,2.46a.66.66,0,0,1-.42.84.78.78,0,0,1-.21,0Zm6.66,0a.66.66,0,0,1-.63-.46c-.13-.4-.68-1.54-1.37-1.54S14.07,10.52,14,10.85a.67.67,0,0,1-.85.42.66.66,0,0,1-.42-.84c.08-.25.87-2.46,2.63-2.46s2.55,2.21,2.63,2.46a.66.66,0,0,1-.42.84.78.78,0,0,1-.21,0Zm.89,2.48a.35.35,0,0,0-.42,0A10.82,10.82,0,0,1,12,15.71a10.86,10.86,0,0,1-5.8-1.94.35.35,0,0,0-.42,0,.34.34,0,0,0-.07.42A7.66,7.66,0,0,0,12,17.71a7.66,7.66,0,0,0,6.29-3.5.34.34,0,0,0-.07-.42Z"/><path class="cls-3" d="M14.15,2.63a1.84,1.84,0,0,0,.06.47,6.37,6.37,0,0,0,3.64,4.13,6.85,6.85,0,0,0,3.27-3A11.87,11.87,0,0,0,15.83.63,2,2,0,0,0,14.15,2.63Zm-5,16.76a2.16,2.16,0,0,0,.06-.51,2.21,2.21,0,0,0-4-1.28,2.2,2.2,0,0,0-3.72.2,12.06,12.06,0,0,0,5.38,5.05,6.27,6.27,0,0,0,2.29-3.46Zm13.71-2.3a1.53,1.53,0,0,0-2.71-.45,1.53,1.53,0,0,0-2.78.89,2,2,0,0,0,0,.35,4.81,4.81,0,0,0,2.61,3A12.22,12.22,0,0,0,22.87,17.09Z"/><path class="cls-4" d="M22.42,2.18A2,2,0,0,0,18.72,1,2.07,2.07,0,0,0,17.06.14a2,2,0,0,0-2,2,1.76,1.76,0,0,0,.06.46,6.34,6.34,0,0,0,3.65,4.13,6.35,6.35,0,0,0,3.64-4.13A1.76,1.76,0,0,0,22.42,2.18ZM8.14,18.94a2.21,2.21,0,0,0-4-1.29,2.21,2.21,0,0,0-4,1.29,2.07,2.07,0,0,0,.06.5c.3,1.91,2.43,3.92,4,4.48a6.94,6.94,0,0,0,4-4.48,2.07,2.07,0,0,0,.06-.5ZM24,17.42a1.53,1.53,0,0,0-2.78-.89,1.53,1.53,0,0,0-2.78.89,1.39,1.39,0,0,0,0,.35,4.79,4.79,0,0,0,2.74,3.1,4.8,4.8,0,0,0,2.73-3.1,1.41,1.41,0,0,0,0-.35Z"/></g></g></g></g></svg>