<svg xmlns="http://www.w3.org/2000/svg" viewBox="0 0 23.85 21.38"><defs><style>.cls-1{fill:#f83640;}</style></defs><title>34-心碎</title><g id="图层_2" data-name="图层 2"><g id="图层_1-2" data-name="图层 1"><path id="路径" class="cls-1" d="M9,16.37a1,1,0,0,1,0-1.06l2.93-4.44-4-3.42a1,1,0,0,1-.21-1.28L10.6,1.39A6.56,6.56,0,0,0,0,6.58,6.68,6.68,0,0,0,.18,8.07c.91,5.68,7.22,11.67,11.74,13.31l.05,0Z"/><path class="cls-1" d="M17.27,0a6.54,6.54,0,0,0-4.69,2L9.88,6.48l4,3.45a1,1,0,0,1,.18,1.31L11,15.88l2.78,4.63C18,18.15,22.88,13,23.67,8.07A6.55,6.55,0,0,0,17.27,0Z"/></g></g></svg>