<svg xmlns="http://www.w3.org/2000/svg" xmlns:xlink="http://www.w3.org/1999/xlink" viewBox="0 0 24 24"><defs><style>.cls-1{fill:url(#未命名的渐变);}.cls-2{fill:#662e00;}.cls-3{fill:#ffac33;}.cls-4{fill:#dadfe8;}.cls-5{fill:#f83640;}.cls-6{fill:#a3acbf;}.cls-7{fill:#452e04;}</style><radialGradient id="未命名的渐变" cx="-273.05" cy="380.52" r="0.77" gradientTransform="matrix(24, 0, 0, -24, 6565.21, 9140.32)" gradientUnits="userSpaceOnUse"><stop offset="0" stop-color="#ffe5a3"/><stop offset="1" stop-color="#ffad29"/></radialGradient></defs><title>26-感冒</title><g id="图层_2" data-name="图层 2"><g id="图层_1-2" data-name="图层 1"><g id="页面-1"><circle id="椭圆形" class="cls-1" cx="12" cy="12" r="12"/><ellipse class="cls-2" cx="8.33" cy="11" rx="1.67" ry="2.33"/><ellipse class="cls-2" cx="15.67" cy="11" rx="1.67" ry="2.33"/><path id="形状" class="cls-2" d="M19.33,8a5.91,5.91,0,0,1-5.26-3,.66.66,0,0,1,1.19-.59,4.63,4.63,0,0,0,4.07,2.3.67.67,0,1,1,0,1.33ZM4.67,8a.67.67,0,0,1,0-1.34c3.39,0,4-2.08,4-2.17A.67.67,0,0,1,9.5,4a.66.66,0,0,1,.48.8C10,5,9.14,8,4.67,8Z"/><path id="路径" class="cls-3" d="M24,11.38l-2.67.54-10.79,7,4.74.64,7.79-4.81a1.54,1.54,0,0,0,.8-1.16A15.17,15.17,0,0,0,24,11.38Z"/><path class="cls-2" d="M15.66,19.59s-.77-1.92-3.66-1.92-3.65,1.89-3.66,1.92A.34.34,0,0,0,8.5,20a.35.35,0,0,0,.4,0s.67-.58,3.1-.58,3.08.56,3.1.58a.35.35,0,0,0,.23.09.33.33,0,0,0,.17,0A.35.35,0,0,0,15.66,19.59Z"/><path class="cls-4" d="M23.65,10.49a1.66,1.66,0,0,0-2.33-.34L9.84,18.76a6.32,6.32,0,0,1,1.75-.35c.17,0,1.77-.42,1.77-.42l.86.69s.61.25.8.36l8.3-6.22a1.67,1.67,0,0,0,.33-2.33Z"/><path class="cls-5" d="M19.12,13.91c-.29-.39-.52-.76-.92-.46l-6.61,5c.17,0,.33,0,.52,0a6.39,6.39,0,0,1,2.11.3l5.06-3.79c.4-.3.14-.58-.16-1Z"/><path class="cls-6" d="M12.4,16.82l.82,1.06.5-.39-.8-1.06Zm1.48-1.11.82,1.07.5-.4-.8-1.06Zm1.46-1.08.82,1.07.49-.4-.79-1.06Zm1.45-1.1.82,1.06.5-.4-.8-1Zm1.49-1.1.83,1.07.49-.4L18.8,12Zm1.43-1.08.82,1.07L21,12,20.23,11Z"/><path class="cls-7" d="M15,19l.54.35a2.7,2.7,0,0,0-.35-.48Z"/></g></g></g></svg>