<svg xmlns="http://www.w3.org/2000/svg" xmlns:xlink="http://www.w3.org/1999/xlink" viewBox="0 0 24 24"><defs><style>.cls-1{fill:url(#未命名的渐变);}.cls-2{fill:#662e00;}.cls-3{fill:#fff;}.cls-4{fill:#4db5ff;}</style><radialGradient id="未命名的渐变" cx="-233.38" cy="407.7" r="0.77" gradientTransform="matrix(24, 0, 0, -24, 5613.05, 9792.68)" gradientUnits="userSpaceOnUse"><stop offset="0" stop-color="#ffe5a3"/><stop offset="1" stop-color="#ffad29"/></radialGradient></defs><title>11-笑哭</title><g id="图层_2" data-name="图层 2"><g id="图层_1-2" data-name="图层 1"><path id="路径" class="cls-1" d="M24,12A12,12,0,1,1,12,0,12,12,0,0,1,24,12"/><path id="形状" class="cls-2" d="M19,11.86c0-.09-1-2.19-3-2.19s-2.93,2.1-3,2.19a.34.34,0,0,0,.1.4.33.33,0,0,0,.4,0,4.42,4.42,0,0,1,2.47-.6,4.4,4.4,0,0,1,2.47.6.36.36,0,0,0,.2.06.31.31,0,0,0,.2-.07.34.34,0,0,0,.1-.4Zm-8,0c0-.09-1-2.19-3-2.19s-2.93,2.1-3,2.19a.35.35,0,0,0,.09.4.35.35,0,0,0,.41,0A4.42,4.42,0,0,1,8,11.67a4.4,4.4,0,0,1,2.47.6.36.36,0,0,0,.2.06.31.31,0,0,0,.2-.07.34.34,0,0,0,.1-.4Zm9.7-1.19a.66.66,0,0,1-.62-.42,6.2,6.2,0,0,0-4.18-3.6.66.66,0,0,1,.26-1.3,7.47,7.47,0,0,1,5.16,4.4.68.68,0,0,1-.38.87A.69.69,0,0,1,20.67,10.67Zm-17.34,0a.69.69,0,0,1-.24-.05.68.68,0,0,1-.38-.87,7.5,7.5,0,0,1,5.16-4.4.66.66,0,0,1,.78.52.65.65,0,0,1-.52.78A6.17,6.17,0,0,0,4,10.25a.66.66,0,0,1-.62.42Zm8.67,4A27.85,27.85,0,0,1,6,14c-.45-.09-1.33,0-1.33,1.33,0,2.67,3.06,6,7.33,6s7.33-3.33,7.33-6c0-1.33-.88-1.42-1.33-1.33A27.85,27.85,0,0,1,12,14.67Z"/><path class="cls-3" d="M6,15.33A20.83,20.83,0,0,0,12,16a20.83,20.83,0,0,0,6-.67S16.67,18,12,18,6,15.33,6,15.33Z"/><path class="cls-4" d="M7.23,18.82A3.33,3.33,0,0,1,.77,17.18c.45-1.79,4.22-5.81,4.87-5.64S7.68,17,7.23,18.82Zm9.53,0a3.33,3.33,0,1,0,6.46-1.64c-.46-1.79-4.23-5.81-4.87-5.64S16.3,17,16.76,18.82Z"/></g></g></svg>