<svg xmlns="http://www.w3.org/2000/svg" viewBox="0 0 23.52 23.52"><defs><style>.cls-1{fill:#ffad29;}.cls-2{fill:#f83640;}.cls-3{fill:#ff8987;}.cls-4{fill:#ffdcd9;}</style></defs><title>49-棒棒糖</title><g id="图层_2" data-name="图层 2"><g id="图层_1-2" data-name="图层 1"><g id="页面-1"><path id="路径" class="cls-1" d="M23.14,23.14a1.31,1.31,0,0,1-1.85,0L7.89,9.74A1.31,1.31,0,1,1,9.74,7.89l13.4,13.4A1.31,1.31,0,0,1,23.14,23.14Z"/><path class="cls-2" d="M18.29,9.15A9.15,9.15,0,1,1,9.15,0,9.14,9.14,0,0,1,18.29,9.15Z"/><path id="形状" class="cls-3" d="M11.37,18a8.18,8.18,0,0,1-7.79-4.34A6.45,6.45,0,0,1,6.24,4.94,5,5,0,0,1,13.05,7a3.9,3.9,0,0,1-1.6,5.27,3,3,0,0,1-4-1.23A2.25,2.25,0,0,1,8.34,8a1.65,1.65,0,0,1,1.27-.13,1.89,1.89,0,0,1,.43.2,1.6,1.6,0,0,0-1.46,0,1.84,1.84,0,0,0-.76,2.49,2.14,2.14,0,0,0,2.9.89,2.53,2.53,0,0,0,1-3.41,3,3,0,0,0-4-1.23,3.59,3.59,0,0,0-1.47,4.83,4.32,4.32,0,0,0,5.81,1.77,5.2,5.2,0,0,0,2.14-7A6.32,6.32,0,0,0,5.62,3.79a7.75,7.75,0,0,0-3.19,10.5,9.66,9.66,0,0,0,2.41,2.93,9.2,9.2,0,0,0,4.31,1.07A9.06,9.06,0,0,0,11.37,18Zm-.89-8.36a.76.76,0,0,0,.26-.24,1.24,1.24,0,0,1-.64.92A.84.84,0,0,1,9,10a.54.54,0,0,1,.22-.73l.14,0a.29.29,0,0,1,.27.16A.66.66,0,0,0,10.48,9.65Z"/><path class="cls-4" d="M16.1,5.43A10.09,10.09,0,0,0,8.26.14L7.83.1A9.11,9.11,0,0,0,1.92,3.56a8.06,8.06,0,0,1,6.18-2A8.61,8.61,0,0,1,14.77,6a5.92,5.92,0,0,1-2.95,7.81,4.57,4.57,0,0,1-6.05-2.29A3.52,3.52,0,0,1,7.52,6.9a2.69,2.69,0,0,1,3.53,1.33,2,2,0,0,1-.55,2.35,1.88,1.88,0,0,0,.4-.63,1.84,1.84,0,0,0,0-1.42A2.16,2.16,0,0,0,9.67,7.42a2.12,2.12,0,0,0-1.62,0,2.47,2.47,0,0,0-1.24,3.27,2.93,2.93,0,0,0,1.62,1.53,3,3,0,0,0,2.23-.07,3.46,3.46,0,0,0,1.72-4.57A4.13,4.13,0,0,0,6.92,5.57a5,5,0,0,0-2.49,6.58A6,6,0,0,0,7.8,15.32a6.13,6.13,0,0,0,2.14.39,6,6,0,0,0,2.48-.54A7.37,7.37,0,0,0,16.1,5.43Zm-6.57,4a.41.41,0,0,1-.2.21.73.73,0,0,0,0,1.34,1.44,1.44,0,0,1-.4-.09,1.4,1.4,0,0,1-.8-.75,1,1,0,0,1,0-.77,1,1,0,0,1,.53-.56.66.66,0,0,1,.27-.06.59.59,0,0,1,.23,0,.67.67,0,0,1,.37.35.36.36,0,0,1,0,.29Z"/></g></g></g></svg>