<svg xmlns="http://www.w3.org/2000/svg" viewBox="0 0 22.26 23.76"><defs><style>.cls-1{fill:#f3d2a2;}.cls-2{fill:#d2a077;}</style></defs><title>爱你</title><g id="图层_2" data-name="图层 2"><g id="图层_1-2" data-name="图层 1"><path id="路径" class="cls-1" d="M11.9,23.08a7.59,7.59,0,0,0,3.76-4c1.12-2.44,5.06-3.44,6-4.14,1.36-1,.12-2.91-1.9-2.59-2.18.35-2.71,1.29-4,1.87-.67.29-1.14.2-1.23-1-.07-.9,1.1-8,1.46-11.31C16.12.78,15.65.14,14.75,0S13.2.44,13,1.47C12.44,4,11.58,9,11.22,9.31c-1.93,1.21-4.5,2.8-6.8-.28,0,0-1.1-5.77-1.27-6.94a1.42,1.42,0,1,0-2.8.45c.21,2,.86,6.66.29,8.32-.5,1.46-1.38,6.47.56,9.52S8.24,24.65,11.9,23.08Z"/><path class="cls-2" d="M5,15C5.6,17.75,9,17.44,8.73,14.8c-.17-2.15-.82-5.9-1-6.83-.43-1.92-3.77-1.5-3.5.77.18,1.47.37,4.08.82,6.24Z"/><path class="cls-1" d="M5.64,14.7c.53,2.3,3,1.66,2.83-.49s-.62-5.43-.78-6.38c-.35-2.21-3.2-1.22-3,.42s.52,4.73.92,6.45Z"/><path class="cls-2" d="M7.62,15.58c0,3.3,3.72,3.12,4,.65a59.64,59.64,0,0,0-.32-7.81c-.08-1.79-3.34-1.8-3.45.23-.09,1.65-.27,5.18-.24,6.93Z"/><path class="cls-1" d="M8.24,15.68a1.45,1.45,0,1,0,2.88.14c.2-2.14.15-6.73.14-7.69,0-1.67-2.83-1.61-2.9.44-.07,1.65,0,5.35-.12,7.11Z"/></g></g></svg>