<svg xmlns="http://www.w3.org/2000/svg" xmlns:xlink="http://www.w3.org/1999/xlink" viewBox="0 0 24 24"><defs><style>.cls-1{fill:url(#未命名的渐变);}.cls-2{fill:#662e00;}.cls-3{fill:#ccd6dd;}</style><radialGradient id="未命名的渐变" cx="-239.08" cy="365.85" r="0.77" gradientTransform="matrix(24, 0, 0, -24, 5750, 8788.19)" gradientUnits="userSpaceOnUse"><stop offset="0" stop-color="#ffe5a3"/><stop offset="1" stop-color="#ffad29"/></radialGradient></defs><title>抓狂</title><g id="图层_2" data-name="图层 2"><g id="图层_1-2" data-name="图层 1"><g id="页面-1"><path id="路径" class="cls-1" d="M24,12A12,12,0,1,1,12,0,12,12,0,0,1,24,12"/><path id="形状" class="cls-2" d="M12,14.33A6.72,6.72,0,0,0,5,20a.34.34,0,0,0,.12.3.33.33,0,0,0,.21.07h.11A26.55,26.55,0,0,1,12,19a16.86,16.86,0,0,1,6.52,1.3A.34.34,0,0,0,19,20,6.72,6.72,0,0,0,12,14.33Zm7.33-7.66a5.91,5.91,0,0,1-5.26-3,.66.66,0,0,1,.3-.89.65.65,0,0,1,.89.29,4.61,4.61,0,0,0,4.07,2.3.67.67,0,0,1,0,1.34Zm-14.66,0a.67.67,0,0,1,0-1.34c3.39,0,4-2.08,4-2.17A.67.67,0,0,1,10,3.5C10,3.62,9.14,6.67,4.67,6.67Z"/><path class="cls-3" d="M12,15.33a5.81,5.81,0,0,1,4,1.34H8A5.81,5.81,0,0,1,12,15.33Z"/><path class="cls-2" d="M4,12.67a.68.68,0,0,1-.53-.27.67.67,0,0,1,.13-.93,12.18,12.18,0,0,1,4.57-2,8.84,8.84,0,0,0-3.5-.84.67.67,0,0,1,0-1.34,9.08,9.08,0,0,1,5.8,2.2.68.68,0,0,1,.15.73.69.69,0,0,1-.62.41,10.44,10.44,0,0,0-5.6,1.86A.67.67,0,0,1,4,12.67Zm16,0a.67.67,0,0,1-.4-.14A10.53,10.53,0,0,0,14,10.67a.69.69,0,0,1-.62-.41.68.68,0,0,1,.15-.73,9.08,9.08,0,0,1,5.8-2.2.67.67,0,0,1,0,1.34,8.84,8.84,0,0,0-3.5.84,12.18,12.18,0,0,1,4.57,2,.67.67,0,0,1,.13.93A.68.68,0,0,1,20,12.67Z"/></g></g></g></svg>