<svg xmlns="http://www.w3.org/2000/svg" viewBox="0 0 18.36 23.93"><defs><style>.cls-1{fill:#d2a077;}.cls-2{fill:#f3d2a2;}</style></defs><title>46-OK</title><g id="图层_2" data-name="图层 2"><g id="图层_1-2" data-name="图层 1"><path id="路径" class="cls-1" d="M12.74,13.92,11.59,9.35,9,3.47a1.68,1.68,0,1,1,3.13-1.21l4.14,10.51Z"/><path class="cls-2" d="M18.3,12.26A32.42,32.42,0,0,0,17,7.92l-3.86-7a1.68,1.68,0,0,0-3,1.52L13.68,8.8l.94,3.66c-.72-.66-1.74-1.57-2.68-2.41A21.13,21.13,0,0,0,8.65,7.51a1.22,1.22,0,0,0-1.42,0L3.31,9.18a.78.78,0,0,0-.26.22L1.51,11.46a1.68,1.68,0,0,0,2.57,2.15s1.19-1.7,1.29-1.76a8.21,8.21,0,0,1,2.54-.94c.6,0,4.19,4,4.19,4a.53.53,0,0,1,0,.6L10.2,19a.63.63,0,0,1-.22.21l-1.79,1a.53.53,0,0,1-.33,0L4.35,18.7A.78.78,0,0,1,4,18.31a8.07,8.07,0,0,1-.6-2.43A1.68,1.68,0,0,0,0,16a9.35,9.35,0,0,0,3.15,6.19,7.85,7.85,0,0,0,6.44,1.59c3.07-.41,5-.82,7.67-6.37a10.69,10.69,0,0,0,1-5.19Z"/></g></g></svg>