<svg xmlns="http://www.w3.org/2000/svg" viewBox="0 0 24 21.88"><defs><style>.cls-1{fill:#ffdcd9;}.cls-2{fill:#ff8987;}.cls-3{fill:#85081c;}.cls-4{fill:#5e0515;}</style></defs><title>39-猪头</title><g id="图层_2" data-name="图层 2"><g id="图层_1-2" data-name="图层 1"><path id="路径" class="cls-1" d="M22.8,8.1a4.33,4.33,0,0,0,.67-.85c1.13-1.91.18-6.87-.39-7.2s-3.69.7-5.5,2.08A10.87,10.87,0,0,0,12,.55,10.88,10.88,0,0,0,6.43,2.12C4.62.74,1.41-.23,1,.05S-.57,5.34.55,7.25a4.16,4.16,0,0,0,.66.83A13.25,13.25,0,0,0,0,13.53c0,6.66,5.34,8.35,12,8.35s12-1.69,12-8.35A13.35,13.35,0,0,0,22.8,8.1Z"/><path class="cls-2" d="M4.93,3.19C3.49,2.35,2,1.8,1.73,2S1,5.29,1.5,7.47A13.52,13.52,0,0,1,4.93,3.19Z"/><path class="cls-2" d="M22.5,7.47c.49-2.18.15-5.29-.23-5.51s-1.76.38-3.2,1.23A13.52,13.52,0,0,1,22.5,7.47Z"/><path class="cls-2" d="M18.67,14.63c0,3-2.07,6.25-6.67,6.25s-6.67-3.26-6.67-6.25S7.4,10.88,12,10.88,18.67,11.64,18.67,14.63Z"/><path id="形状" class="cls-3" d="M10,15.61c0,1.24-.23,1.6-1,1.6s-1-.36-1-1.6S8.23,14,9,14,10,14.38,10,15.61Zm6,0c0,1.24-.23,1.6-1,1.6s-1-.36-1-1.6.23-1.6,1-1.6S16,14.38,16,15.61Z"/><circle id="椭圆形" class="cls-4" cx="4.67" cy="10.55" r="1.33"/><circle class="cls-4" cx="19.33" cy="10.55" r="1.33"/></g></g></svg>