<svg xmlns="http://www.w3.org/2000/svg" viewBox="0 0 23.04 24"><defs><style>.cls-1{fill:#dadfe8;}.cls-2{fill:#f83640;}.cls-3{fill:#99aab5;opacity:0.6;isolation:isolate;}.cls-4{fill:#ffd57a;}.cls-5{fill:#ffac33;}.cls-6{fill:#ffad29;}.cls-7{fill:#fff;}</style></defs><title>52-爆米花</title><g id="图层_2" data-name="图层 2"><g id="图层_1-2" data-name="图层 1"><g id="页面-1"><path id="路径" class="cls-1" d="M20.92,7.06H2.12a2.12,2.12,0,1,0,0,4.23,2.22,2.22,0,0,0,.37,0v0l.45,9.89A3,3,0,0,0,5.88,24h11.3a3,3,0,0,0,2.95-2.82l.45-9.89v0a2,2,0,0,0,.35,0,2.12,2.12,0,1,0,0-4.23Z"/><path id="形状" class="cls-2" d="M19.06,11.29v12a2.92,2.92,0,0,0,1.05-2.11l.48-9.89Zm-4.24,0h2.12V24H14.82ZM10.59,24V11.29h2.12V24ZM6.35,11.29H8.47V24H6.35Zm-3.89,0,.48,9.89a3,3,0,0,0,1.3,2.3V11.29Z"/><polygon class="cls-3" points="2.46 11.29 2.53 12.71 20.52 12.71 20.59 11.29 2.46 11.29"/><path class="cls-4" d="M20.65,7.11a1.37,1.37,0,0,0,.05-.4,1.79,1.79,0,0,0-.49-1.23,1,1,0,0,0,.49-.89,1,1,0,0,0-1.45-1,1.06,1.06,0,0,0-.74-.75,1,1,0,0,0,.08-.39,1.07,1.07,0,0,0-1.06-1.06,1,1,0,0,0-.38.08,1.76,1.76,0,0,0-3.5.27,1.67,1.67,0,0,0,0,.39,1.75,1.75,0,0,0-1.1.68,1.77,1.77,0,0,0-3.18,1h0a1.72,1.72,0,0,0-.74-.33,1.76,1.76,0,0,0-3.46,0,2.58,2.58,0,0,0-.39,0A2.48,2.48,0,0,0,2.35,6,2.59,2.59,0,0,0,2.6,7.07a1.06,1.06,0,0,0,.1,2.11H20.35a1.06,1.06,0,0,0,.3-2.07Z"/><g id="编组"><circle id="椭圆形" class="cls-5" cx="18.59" cy="4.94" r="1"/><circle class="cls-5" cx="16.12" cy="3.18" r="1.06"/><circle class="cls-5" cx="7.29" cy="4.24" r="1"/><path class="cls-6" d="M20.7,8.12a1.05,1.05,0,0,0-2.05-.34l-.06,0a.71.71,0,0,0-.71.71h2.76A1,1,0,0,0,20.7,8.12ZM5.53,7.76a1,1,0,0,1,.39.08A1.06,1.06,0,0,1,8,8.12a1,1,0,0,1-.07.35h3a1,1,0,0,1-.07-.35,1.06,1.06,0,0,1,1.06-1.06,1,1,0,0,1,.47.11,1,1,0,0,1-.12-.46,1.06,1.06,0,0,1,2.12,0,1,1,0,0,1-.08.39,1.06,1.06,0,0,1,.79,1,1,1,0,0,1-.07.35h2.1l-.4-.35a1.44,1.44,0,0,0,.49-1.06,1.42,1.42,0,0,0-1.42-1.41,1.47,1.47,0,0,0-.72.2,1.23,1.23,0,0,0,0-.2,1.41,1.41,0,0,0-1.41-1.41,1.44,1.44,0,0,0-1.29.82A1.05,1.05,0,0,0,10.82,6a1,1,0,0,0,.08.39,1.06,1.06,0,0,0-.78,1,1.09,1.09,0,0,0,.07.4A1.06,1.06,0,0,0,9.76,8a1,1,0,0,0-.7-.28,1.06,1.06,0,0,0-.47.12A1.05,1.05,0,0,0,7.25,6.43a1.05,1.05,0,0,0-2.07.28,1,1,0,0,0,.07.39,1,1,0,0,0-.43.23,1,1,0,0,0-.7-.27A1.05,1.05,0,0,0,3.06,8.12a1,1,0,0,0,.06.35H4.53A1.07,1.07,0,0,1,5.53,7.76Z"/></g><path class="cls-7" d="M1.65,8.47v.71a.7.7,0,0,0,.7.7H20.7a.7.7,0,0,0,.71-.7V8.47Z"/></g></g></g></svg>