<svg xmlns="http://www.w3.org/2000/svg" viewBox="0 0 24 24"><defs><style>.cls-1{fill:#50a5e6;}.cls-2{fill:#1c6399;}.cls-3{fill:#d2a077;}.cls-4{fill:#f3d2a2;}</style></defs><title>43-合十</title><g id="图层_2" data-name="图层 2"><g id="图层_1-2" data-name="图层 1"><g id="页面-1"><path id="路径" class="cls-1" d="M20,14.67c-2,0-4.46,4.73-4.67,6.66C15.05,23.94,16.67,24,16.67,24H24V17.33S21.71,14.67,20,14.67Z"/><ellipse id="椭圆形" class="cls-2" cx="18.38" cy="18.99" rx="3.9" ry="1.09" transform="translate(-7.26 25.42) rotate(-60)"/><path class="cls-3" d="M13.39,0a1.43,1.43,0,0,1,1.43,1.43c0,.52.44,7.21.44,7.21L12,12V1.43A1.42,1.42,0,0,1,13.39,0Z"/><path class="cls-4" d="M12.58,2.88a1.27,1.27,0,1,1,2.54,0s.36,4,.8,6.25a10.13,10.13,0,0,1,.84,4.16,46.26,46.26,0,0,0,3.75,3.34,11,11,0,0,1-3.18,5.44L15,20.12a3.73,3.73,0,0,1-3-2.84c0-2,.57-14.4.57-14.4Z"/><path class="cls-1" d="M4,14.67c2,0,4.46,4.73,4.67,6.66C9,23.94,7.33,24,7.33,24H0V17.33S2.29,14.67,4,14.67Z"/><ellipse class="cls-2" cx="5.62" cy="18.99" rx="1.09" ry="3.9" transform="translate(-8.74 5.35) rotate(-30)"/><path class="cls-3" d="M10.71,0a1.4,1.4,0,0,0-1.56,1.4C9.15,1.93,9,8.29,9,8.29L11.93,12,12,1.49A1.46,1.46,0,0,0,10.71,0Z"/><path class="cls-4" d="M11.42,2.88a1.27,1.27,0,1,0-2.54,0s-.36,4-.8,6.25a10.13,10.13,0,0,0-.84,4.16,46.26,46.26,0,0,1-3.75,3.34,11,11,0,0,0,3.18,5.44L9,20.12a3.73,3.73,0,0,0,3-2.84C12,15.29,11.42,2.88,11.42,2.88Z"/><path class="cls-3" d="M12,17.22a.5.5,0,0,1-.5-.5V1.86a.5.5,0,1,1,1,0V16.72A.5.5,0,0,1,12,17.22Z"/></g></g></g></svg>