<svg xmlns="http://www.w3.org/2000/svg" viewBox="0 0 14.55 24"><defs><style>.cls-1{fill:#56a32c;}.cls-2{fill:#d12231;}.cls-3{fill:#f83640;}</style></defs><title>40-玫瑰</title><g id="图层_2" data-name="图层 2"><g id="图层_1-2" data-name="图层 1"><path id="路径" class="cls-1" d="M8.15,16.91H7.94v-.28c3.2-.32,5.7-2.84,5.7-4.87s0,1-6.37,1S.89,9.6.89,11.76s2.51,4.56,5.72,4.87v.28H6.39C4.69,16.91,2,15.54,2,16s2.79,2.67,4.62,3.19v4.11a.67.67,0,1,0,1.33,0V19.22c1.83-.52,4.62-2.76,4.62-3.19s-2.7.88-4.41.88Z"/><path class="cls-2" d="M13,4.9C10.37,2,14,1,11.23,1A5.49,5.49,0,0,0,9,1.77C8.58.73,8,0,7.27,0,5.91,0,4.79,2.89,4.69,5.51A5.78,5.78,0,0,0,3.46,8.82c0,4.06,1.72,5.89,4.32,5.89C13,14.71,16.87,9.34,13,4.9Z"/><path class="cls-3" d="M11.09,8.82c0,4.06-1.72,5.89-4.32,5.89-5.18,0-9.09-5.37-5.18-9.81C4.18,2,.59,1,3.32,1,5.05,1,11.09,4.76,11.09,8.82Z"/></g></g></svg>