<svg xmlns="http://www.w3.org/2000/svg" viewBox="0 0 24 24"><defs><style>.cls-1{fill:#ffcc4d;}.cls-2{fill:#9eddff;}.cls-3{fill:#f5f8fa;}.cls-4{fill:#662e00;}.cls-5{fill:#ff9500;}</style></defs><title>22-惊恐</title><g id="图层_2" data-name="图层 2"><g id="图层_1-2" data-name="图层 1"><path id="路径" class="cls-1" d="M12,0A12,12,0,0,0,5.05,21.77c.07-4.29-1.49-9.1-4.11-9.1a2.15,2.15,0,0,0-.77.12c.2-.51.64-.79,1.46-.79,2.84,0,4.44,5.67,4.06,10.19a11.9,11.9,0,0,0,12.62,0C17.93,17.65,19.53,12,22.37,12c.83,0,1.27.28,1.47.79a2.21,2.21,0,0,0-.78-.12c-2.62,0-4.18,4.8-4.11,9.1A12,12,0,0,0,12,0Z"/><path class="cls-2" d="M12,0A12,12,0,0,0,0,12a11.85,11.85,0,0,0,.23,2.32,7.44,7.44,0,0,1,.7-1.65,2.13,2.13,0,0,0-.76.12A1.25,1.25,0,0,1,1.35,12c2-2.79,6-4.7,10.65-4.7S20.66,9.24,22.65,12a1.24,1.24,0,0,1,1.18.76,2.05,2.05,0,0,0-.76-.12,7.44,7.44,0,0,1,.7,1.65A11.85,11.85,0,0,0,24,12,12,12,0,0,0,12,0Z"/><path class="cls-3" d="M4.9,7.94c-.63,2.12.07,4.2,1.57,4.64s3.22-.91,3.85-3-.07-4.2-1.57-4.65S5.53,5.82,4.9,7.94Z"/><path class="cls-3" d="M19.1,7.94c.63,2.12-.07,4.2-1.57,4.64s-3.22-.91-3.85-3,.07-4.2,1.57-4.65S18.47,5.82,19.1,7.94Z"/><path class="cls-4" d="M12,12a3.34,3.34,0,0,0-3.33,3.33v4a3.33,3.33,0,1,0,6.66,0v-4A3.34,3.34,0,0,0,12,12Z"/><path class="cls-5" d="M.94,12.67a2.15,2.15,0,0,0-.77.12,1.4,1.4,0,0,1,.18-.32C-.89,14,1.9,19,.55,24h4.3C5.65,19.36,4,12.67.94,12.67Z"/><path class="cls-5" d="M23.84,12.79a2.21,2.21,0,0,0-.78-.12c-3.09,0-4.71,6.66-3.91,11.33h4.31C22.18,19.3,24.56,14.61,23.84,12.79Z"/></g></g></svg>