<svg xmlns="http://www.w3.org/2000/svg" xmlns:xlink="http://www.w3.org/1999/xlink" viewBox="0 0 22.67 24"><defs><style>.cls-1{fill:url(#未命名的渐变);}.cls-2{fill:#65471b;}.cls-3{fill:#e99d1b;}.cls-4{fill:#f3d2a2;}.cls-5{fill:#a67125;}</style><radialGradient id="未命名的渐变" cx="-239.43" cy="364.98" r="0.77" gradientTransform="matrix(22.67, 0, 0, -22.67, 5438.33, 8280.18)" gradientUnits="userSpaceOnUse"><stop offset="0" stop-color="#ffe5a3"/><stop offset="1" stop-color="#ffad29"/></radialGradient></defs><title>28-嘘</title><g id="图层_2" data-name="图层 2"><g id="图层_1-2" data-name="图层 1"><g id="页面-1"><path id="路径" class="cls-1" d="M22.67,11.33A11.34,11.34,0,1,1,11.33,0,11.34,11.34,0,0,1,22.67,11.33"/><ellipse id="椭圆形" class="cls-2" cx="11.21" cy="15.42" rx="2.71" ry="1.29"/><path class="cls-3" d="M17.23,17.32h0a1.19,1.19,0,0,0-1.64.39l-.1.16a2.65,2.65,0,0,0-1.38-.76l-.93-.19L14,12.76a1.21,1.21,0,0,0-.93-1.41h0a1.2,1.2,0,0,0-1.41.93l-1.11,5.45v.05l-.21,1h0L9.56,22.5A1.17,1.17,0,0,0,10.82,24H13c1.87,0,2.42-.67,2.8-2.06l1.83-3a1.2,1.2,0,0,0-.4-1.64Z"/><path class="cls-4" d="M16.23,17.32h0a1.19,1.19,0,0,0-1.64.39l-.1.16a2.65,2.65,0,0,0-1.38-.76l-.93-.19L13,12.76a1.21,1.21,0,0,0-.93-1.41h0a1.2,1.2,0,0,0-1.41.93L9.53,17.73v.05l-.21,1h0L8.56,22.5A1.17,1.17,0,0,0,9.82,24H12c1.87,0,2.42-.67,2.8-2.06l1.83-3a1.2,1.2,0,0,0-.4-1.64Z"/><path class="cls-5" d="M14.27,20.5h0a.23.23,0,0,1-.18-.26.69.69,0,0,0-.12-.56A3.27,3.27,0,0,0,12,18.84a.23.23,0,0,1-.2-.26.21.21,0,0,1,.25-.19,3.71,3.71,0,0,1,2.24,1,1.1,1.1,0,0,1,.2.91.22.22,0,0,1-.22.19Z"/><path class="cls-5" d="M12.1,23.65a2.38,2.38,0,0,1-.56-.07,1,1,0,0,1-.78-.65.77.77,0,0,1,.19-.76,1.15,1.15,0,0,1,1.13-.23.22.22,0,0,1-.11.43.71.71,0,0,0-.69.12.31.31,0,0,0-.09.31.58.58,0,0,0,.46.34,1.29,1.29,0,0,0,1.45-.42,1.37,1.37,0,0,0,.26-1.25c-.29-.54-1.37-.66-1.76-.66a.23.23,0,0,1-.23-.23.23.23,0,0,1,.23-.23c.06,0,1.69,0,2.16.91A1.8,1.8,0,0,1,13.45,23a1.65,1.65,0,0,1-1.35.65Z"/><path class="cls-2" d="M8.81,8.81c0,.93-.56,1.68-1.25,1.68S6.3,9.74,6.3,8.81s.56-1.67,1.26-1.67S8.81,7.89,8.81,8.81Z"/><path class="cls-2" d="M19.26,6.85a.73.73,0,0,0,.42-.14.71.71,0,0,0,.14-1A7.36,7.36,0,0,0,14.3,2.6.71.71,0,1,0,14.3,4a6,6,0,0,1,4.39,2.55.7.7,0,0,0,.57.29Z"/><path class="cls-2" d="M13.85,8.81c0,.93.57,1.68,1.26,1.68s1.26-.75,1.26-1.68-.56-1.67-1.26-1.67S13.85,7.89,13.85,8.81Z"/><path class="cls-2" d="M3.41,6.85A.76.76,0,0,1,3,6.71a.72.72,0,0,1-.14-1A7.37,7.37,0,0,1,8.37,2.6.71.71,0,1,1,8.37,4,6,6,0,0,0,4,6.56a.72.72,0,0,1-.57.29Z"/></g></g></g></svg>