<svg xmlns="http://www.w3.org/2000/svg" xmlns:xlink="http://www.w3.org/1999/xlink" viewBox="0 0 24 24"><defs><style>.cls-1{fill:url(#未命名的渐变);}.cls-2{fill:#662e00;}.cls-3{fill:#c3cad9;}</style><radialGradient id="未命名的渐变" cx="-219.1" cy="407.01" r="0.77" gradientTransform="matrix(24, 0, 0, -24, 5270.45, 9775.98)" gradientUnits="userSpaceOnUse"><stop offset="0" stop-color="#ffe5a3"/><stop offset="1" stop-color="#ffad29"/></radialGradient></defs><title>20-闭嘴</title><g id="图层_2" data-name="图层 2"><g id="图层_1-2" data-name="图层 1"><circle id="椭圆形" class="cls-1" cx="12" cy="12" r="12"/><path id="形状" class="cls-2" d="M9.36,9.67C9.36,11,8.61,12,7.69,12S6,11,6,9.67s.75-2.34,1.67-2.34S9.36,8.38,9.36,9.67m8.66,0C18,11,17.28,12,16.36,12s-1.67-1-1.67-2.33.75-2.34,1.67-2.34S18,8.38,18,9.67M16.67,18h-10A.65.65,0,0,1,6,17.34v-.67A.66.66,0,0,1,6.67,16h10Z"/><path class="cls-3" d="M23.5,17.39,18.36,16a.62.62,0,0,0-.78.36l-1.09-.52-.49,1V15.33H14.67v1.34H13.33V15.33H12v1.34H10.67V15.33H9.33v1.34H8V15.33H6.67v2H8v1.34H9.33V17.33h1.34v1.34H12V17.33h1.33v1.34h1.34V17.33h1.09l-.38.81,1.09.53-.06.14a.81.81,0,0,0,.25.85c.41.35,3.52,3.15,3.52,3.15a.86.86,0,0,0,1.18.05A25.81,25.81,0,0,0,24,18.21a.65.65,0,0,0-.47-.82ZM21,21.44l-1.76-1.5,1.07-2.05,2.23.76Z"/></g></g></svg>