<svg xmlns="http://www.w3.org/2000/svg" xmlns:xlink="http://www.w3.org/1999/xlink" viewBox="0 0 24 24"><defs><style>.cls-1{fill:url(#未命名的渐变);}.cls-2{fill:#662e00;}.cls-3{fill:#ffc252;}.cls-4{fill:#1272cc;}</style><radialGradient id="未命名的渐变" cx="-239.08" cy="365.85" r="0.77" gradientTransform="matrix(24, 0, 0, -24, 5750, 8788.19)" gradientUnits="userSpaceOnUse"><stop offset="0" stop-color="#ffe5a3"/><stop offset="1" stop-color="#ffad29"/></radialGradient></defs><title>9-睡</title><g id="图层_2" data-name="图层 2"><g id="图层_1-2" data-name="图层 1"><g id="页面-1"><g id="第二排"><circle id="椭圆形" class="cls-1" cx="12" cy="12" r="12"/><circle class="cls-2" cx="12" cy="17.33" r="2"/><path id="形状" class="cls-2" d="M11.54,11.07a.34.34,0,0,0-.41,0,4.47,4.47,0,0,1-2.46.6,4.53,4.53,0,0,1-2.47-.6.35.35,0,0,0-.41,0,.33.33,0,0,0-.09.4c0,.09,1,2.2,3,2.2s2.93-2.11,3-2.2a.34.34,0,0,0-.1-.4Zm6.67,0a.35.35,0,0,0-.41,0,4.53,4.53,0,0,1-2.47.6,4.47,4.47,0,0,1-2.46-.6.33.33,0,0,0-.51.4c0,.09,1,2.2,3,2.2s2.93-2.11,3-2.2a.33.33,0,0,0-.09-.4Z"/><path id="路径" class="cls-3" d="M23,8.36a.29.29,0,0,0,0-.09.77.77,0,0,0-.82-.79H19.76l2.86-4A.82.82,0,0,0,22.8,3a.55.55,0,0,0-.59-.57H18.65l0-.46-1,.59a.77.77,0,0,0-.34.66.76.76,0,0,0,.82.79H20.2L17.36,8a1,1,0,0,0-.16.49c0,.41.34.61.74.61h4.21A1,1,0,0,0,22.61,9l1-.6H23Z"/><path class="cls-4" d="M21.18,3.39h-2.1a.77.77,0,0,1-.82-.79.77.77,0,0,1,.82-.79h4.11a.55.55,0,0,1,.59.56.76.76,0,0,1-.19.54l-2.85,4h2.39a.79.79,0,1,1,0,1.58H18.92c-.4,0-.74-.2-.74-.62a1,1,0,0,1,.16-.49l2.84-4Z"/><path class="cls-3" d="M16.59,5s0,0,0-.06a.57.57,0,0,0-.61-.6H14.2l2.14-3a.58.58,0,0,0,.14-.4A.42.42,0,0,0,16,.51H13.37l0-.34L12.6.61a.62.62,0,0,0-.25.5A.57.57,0,0,0,13,1.7h1.57l-2.12,3a.74.74,0,0,0-.13.37c0,.31.26.46.56.46H16a.68.68,0,0,0,.34-.09L17.08,5Z"/><path class="cls-4" d="M15.26,1.27H13.69a.57.57,0,0,1-.61-.59.57.57,0,0,1,.61-.6h3.08a.42.42,0,0,1,.44.43.58.58,0,0,1-.14.4l-2.13,3h1.78a.57.57,0,0,1,.61.6.57.57,0,0,1-.61.59H13.57c-.3,0-.55-.15-.55-.46a.74.74,0,0,1,.12-.37l2.12-3Z"/><path class="cls-3" d="M11.83,7s0,0,0,0a.5.5,0,0,0-.53-.51H9.78l1.83-2.56a.48.48,0,0,0,.12-.35.35.35,0,0,0-.38-.36H9.07V2.83l-.65.38a.52.52,0,0,0,.31.93h1.35L8.25,6.7A.59.59,0,0,0,8.14,7c0,.27.22.39.48.39h2.69a.62.62,0,0,0,.29-.07L12.25,7Z"/><path class="cls-4" d="M10.69,3.77H9.35a.51.51,0,1,1,0-1H12a.36.36,0,0,1,.38.37.47.47,0,0,1-.12.34L10.41,6h1.53a.51.51,0,1,1,0,1H9.24c-.26,0-.47-.13-.47-.4a.6.6,0,0,1,.1-.31l1.82-2.56Z"/></g></g></g></g></svg>