<svg xmlns="http://www.w3.org/2000/svg" xmlns:xlink="http://www.w3.org/1999/xlink" viewBox="0 0 24 24"><defs><style>.cls-1{fill:url(#未命名的渐变);}.cls-2{fill:#662e00;}</style><radialGradient id="未命名的渐变" cx="-202.52" cy="390.08" r="0.77" gradientTransform="matrix(24, 0, 0, -24, 4872.41, 9369.74)" gradientUnits="userSpaceOnUse"><stop offset="0" stop-color="#ffe5a3"/><stop offset="1" stop-color="#ffad29"/></radialGradient></defs><title>微笑</title><g id="图层_2" data-name="图层 2"><g id="图层_1-2" data-name="图层 1"><g id="页面-1"><g id="第一排"><circle id="椭圆形" class="cls-1" cx="12" cy="12" r="12"/><path id="路径" class="cls-2" d="M7,15.75c0,.12.78,2.92,5,2.92s5-2.8,5-2.92a.32.32,0,0,0-.16-.37.33.33,0,0,0-.4,0s-1.3,1.24-4.43,1.24-4.42-1.23-4.43-1.24a.37.37,0,0,0-.24-.1.33.33,0,0,0-.16.05A.32.32,0,0,0,7,15.75Z"/><ellipse class="cls-2" cx="8" cy="9" rx="1.67" ry="2.33"/><ellipse class="cls-2" cx="16" cy="9" rx="1.67" ry="2.33"/></g></g></g></g></svg>