<svg xmlns="http://www.w3.org/2000/svg" viewBox="0 0 22.67 23.83"><defs><style>.cls-1{fill:#f3d2a2;}.cls-2{fill:#d2a077;}</style></defs><title>55-强壮</title><g id="图层_2" data-name="图层 2"><g id="图层_1-2" data-name="图层 1"><g id="页面-1"><path id="路径" class="cls-1" d="M7.62,14.67a24.21,24.21,0,0,1,.2-7.25A12.37,12.37,0,0,0,10,8c.67,0,2.67-.67,2.67-1.33A2.34,2.34,0,0,0,12,5.33l1.33-.66C14,4,13.33,0,10.67,0,6,0,4.29,4.67,4.29,4.67h0S.29,12,.29,18c0,0-.67,3.33,0,4s3.33.66,3.33.66c6.67,2.66,19.05.66,19.05-5.34C22.67,8.67,9.62,10.67,7.62,14.67Z"/><path class="cls-2" d="M12.33,21.5a9.75,9.75,0,0,1-4-.9.68.68,0,0,1-.3-.9A.66.66,0,0,1,9,19.4a7.49,7.49,0,0,0,5.31.43,5.58,5.58,0,0,0,3.11-3.41.67.67,0,0,1,.87-.37.66.66,0,0,1,.37.86,6.88,6.88,0,0,1-3.88,4.17A6.77,6.77,0,0,1,12.33,21.5Z"/></g></g></g></svg>