<svg xmlns="http://www.w3.org/2000/svg" viewBox="0 0 23.73 23.73"><defs><style>.cls-1{fill:#ff9500;}.cls-2{fill:#ffd57a;stroke:#ffd57a;}.cls-3{fill:#d97700;}</style></defs><title>53-太阳</title><g id="图层_2" data-name="图层 2"><g id="图层_1-2" data-name="图层 1"><g id="页面-1"><path id="路径" class="cls-1" d="M11.87,23.73a.7.7,0,0,1-.62-.37L10.05,21,8,22.72a.69.69,0,0,1-.45.16.58.58,0,0,1-.26-.05.69.69,0,0,1-.43-.58L6.7,19.6l-2.52.83a.83.83,0,0,1-.22,0,.71.71,0,0,1-.49-.2.69.69,0,0,1-.16-.7L4.13,17l-2.64-.2a.69.69,0,0,1-.59-.42A.68.68,0,0,1,1,15.7l1.73-2L.38,12.48A.69.69,0,0,1,0,11.87a.71.71,0,0,1,.38-.62l2.37-1.2L1,8A.69.69,0,0,1,.9,7.33a.7.7,0,0,1,.59-.43l2.64-.2L3.31,4.18A.68.68,0,0,1,4,3.27a.85.85,0,0,1,.22,0l2.52.82.2-2.64A.7.7,0,0,1,7.33.9.75.75,0,0,1,7.59.85.7.7,0,0,1,8,1l2,1.73L11.25.38A.71.71,0,0,1,11.87,0a.69.69,0,0,1,.61.38l1.2,2.37L15.7,1a.66.66,0,0,1,.44-.17.86.86,0,0,1,.27.05.69.69,0,0,1,.42.59L17,4.13l2.53-.82a.52.52,0,0,1,.21,0,.68.68,0,0,1,.65.91L19.6,6.7l2.65.2A.7.7,0,0,1,22.72,8l-1.73,2,2.37,1.2a.7.7,0,0,1,.37.62.68.68,0,0,1-.37.61L21,13.68l1.73,2a.69.69,0,0,1-.47,1.13L19.6,17l.83,2.53a.69.69,0,0,1-.66.9.76.76,0,0,1-.21,0L17,19.6l-.2,2.65a.68.68,0,0,1-.42.58.63.63,0,0,1-.26.05.69.69,0,0,1-.45-.16l-2-1.73-1.2,2.37a.68.68,0,0,1-.61.37Z"/><path class="cls-2" d="M20.53,11.87A8.67,8.67,0,1,1,11.87,3.2a8.66,8.66,0,0,1,8.66,8.67"/><path id="形状" class="cls-3" d="M11.87,15.51c-4.15,0-5.34-1.55-5.34-.81s2.37,2.65,5.34,2.65,5.33-1.92,5.33-2.65-1.18.81-5.33.81M17.2,9.64a1.78,1.78,0,1,1-1.78-1.77A1.78,1.78,0,0,1,17.2,9.64m-7.11,0A1.78,1.78,0,1,1,8.31,7.87a1.78,1.78,0,0,1,1.78,1.77"/></g></g></g></svg>