<svg xmlns="http://www.w3.org/2000/svg" xmlns:xlink="http://www.w3.org/1999/xlink" viewBox="0 0 24 24"><defs><style>.cls-1{fill:url(#未命名的渐变);}.cls-2{fill:#662e00;}.cls-3{fill:#f4f7f9;}.cls-4{fill:#292f33;}.cls-5{fill:#f83640;}.cls-6{fill:#d12231;}</style><radialGradient id="未命名的渐变" cx="-278.06" cy="382.28" r="0.77" gradientTransform="matrix(24, 0, 0, -24, 6685.49, 9182.48)" gradientUnits="userSpaceOnUse"><stop offset="0" stop-color="#ffe5a3"/><stop offset="1" stop-color="#ffad29"/></radialGradient></defs><title>12-调皮</title><g id="图层_2" data-name="图层 2"><g id="图层_1-2" data-name="图层 1"><path id="路径" class="cls-1" d="M24,12A12,12,0,1,1,12,0,12,12,0,0,1,24,12"/><path class="cls-2" d="M10.3,10.54c0-.09-1-2.19-3-2.19s-2.93,2.1-3,2.19a.34.34,0,0,0,.1.4.33.33,0,0,0,.4,0,4.46,4.46,0,0,1,2.47-.6A4.4,4.4,0,0,1,9.8,11,.36.36,0,0,0,10,11a.33.33,0,0,0,.21-.07A.33.33,0,0,0,10.3,10.54Z"/><path class="cls-3" d="M20.67,9a4.34,4.34,0,1,1-4.34-4.33A4.33,4.33,0,0,1,20.67,9Z"/><circle id="椭圆形" class="cls-4" cx="16.33" cy="9" r="1.67"/><path class="cls-2" d="M4.67,14.17c0,2.65,3.06,6,7.33,6s7.33-3.33,7.33-6A33.25,33.25,0,0,1,4.67,14.17Z"/><path class="cls-5" d="M12.36,15.74h-.72A20.16,20.16,0,0,1,8,15.34V20a3.84,3.84,0,0,0,4,4,3.84,3.84,0,0,0,4-4V15.36a19.26,19.26,0,0,1-3.64.38Z"/><path class="cls-6" d="M12,21.23a.36.36,0,0,0,.36-.36V15.74h-.72v5.14a.36.36,0,0,0,.36.36Z"/></g></g></svg>