<svg xmlns="http://www.w3.org/2000/svg" viewBox="0 0 23.64 23.64"><defs><style>.cls-1{fill:#ffad29;}.cls-2{fill:#dadfe8;}.cls-3{fill:#4eb5ff;}.cls-4{fill:#a3acbf;}</style></defs><title>50-喝奶</title><g id="图层_2" data-name="图层 2"><g id="图层_1-2" data-name="图层 1"><g id="页面-1"><path id="路径" class="cls-1" d="M21.7,4.75c0-.94.48-.47.95-.94,1-.94,1.42-2.36.48-3.3S20.77.05,19.83,1c-.47.47,0,1-.94,1H15.12l.47.46S18,5.7,18.42,5.23c-.47.47,2.82,2.83,2.82,2.83l.46.47Z"/><path class="cls-2" d="M20.3,9.94,17,6.64l-3.3-3.3c-.47.47-2.82,0-3.77.94l-.47.47L8.05,6.17.78,13.43a2.68,2.68,0,0,0,0,3.78l5.66,5.65a2.67,2.67,0,0,0,3.77,0l6.6-6.6,2.08-2.08.47-.47C20.3,12.77,19.83,10.41,20.3,9.94Z"/><path class="cls-3" d="M21.48,9.7c-.65.65-1.23,1.13-1.88.47L13.47,4.05c-.65-.65-.18-1.24.47-1.89a1.67,1.67,0,0,1,2.36,0l5.18,5.19A1.66,1.66,0,0,1,21.48,9.7Z"/><path id="形状" class="cls-4" d="M8.37,21.27a.66.66,0,0,1-.47-.19.68.68,0,0,1,0-.95l8-8a.66.66,0,0,1,.94,0,.68.68,0,0,1,0,.95l-8,8A.66.66,0,0,1,8.37,21.27ZM5.7,18.61a.67.67,0,0,1-.47-1.14l8-8a.68.68,0,0,1,.95,0,.66.66,0,0,1,0,.94l-8,8A.67.67,0,0,1,5.7,18.61ZM3,15.94a.67.67,0,0,1-.47-1.14l8-8a.66.66,0,0,1,.94.94l-8,8A.67.67,0,0,1,3,15.94Z"/></g></g></g></svg>