<svg xmlns="http://www.w3.org/2000/svg" xmlns:xlink="http://www.w3.org/1999/xlink" viewBox="0 0 24 24"><defs><style>.cls-1{fill:url(#未命名的渐变);}.cls-2{fill:#662e00;}</style><radialGradient id="未命名的渐变" cx="-259.24" cy="377.16" r="0.77" gradientTransform="matrix(24, 0, 0, -24, 6233.67, 9059.68)" gradientUnits="userSpaceOnUse"><stop offset="0" stop-color="#ffe5a3"/><stop offset="1" stop-color="#ffad29"/></radialGradient></defs><title>19-困惑</title><g id="图层_2" data-name="图层 2"><g id="图层_1-2" data-name="图层 1"><g id="页面-1"><g id="第三排"><path id="路径" class="cls-1" d="M24,12A12,12,0,1,1,12,0,12,12,0,0,1,24,12"/><path id="形状" class="cls-2" d="M4,8.67A.67.67,0,0,1,4,7.33a5.58,5.58,0,0,0,4.13-2.4.68.68,0,0,1,.94-.13.67.67,0,0,1,.13.93A7,7,0,0,1,4,8.67Zm16,0a7,7,0,0,1-5.2-2.94.67.67,0,0,1,.13-.93.68.68,0,0,1,.94.13A5.6,5.6,0,0,0,20,7.33a.67.67,0,0,1,0,1.34Zm.4,4.8a12.2,12.2,0,0,0-3.1-1.57.85.85,0,0,0,0-.23,1,1,0,0,0-.24-.65,9.5,9.5,0,0,1,2.24-.35.67.67,0,0,0,0-1.34,9.08,9.08,0,0,0-5.8,2.2.68.68,0,0,0-.15.73.69.69,0,0,0,.62.41,10.53,10.53,0,0,1,5.6,1.86.67.67,0,0,0,.4.14.68.68,0,0,0,.53-.27.67.67,0,0,0-.13-.93Zm-9.93-1.94a9.08,9.08,0,0,0-5.8-2.2.67.67,0,0,0,0,1.34A9.5,9.5,0,0,1,6.91,11a1,1,0,0,0-.24.65.85.85,0,0,0,0,.23,12.2,12.2,0,0,0-3.1,1.57.67.67,0,0,0-.13.93.68.68,0,0,0,.53.27.67.67,0,0,0,.4-.14A10.44,10.44,0,0,1,10,12.67a.69.69,0,0,0,.62-.41.68.68,0,0,0-.15-.73ZM12,20a.67.67,0,0,1-.52-.25L9.35,17.09l-1.48,2a.68.68,0,0,1-.49.26.68.68,0,0,1-.52-.19l-.66-.67a.65.65,0,0,1,0-.94.66.66,0,0,1,.94,0l.12.12,1.54-2a.67.67,0,0,1,.52-.27.69.69,0,0,1,.53.25L12,18.27l2.15-2.69a.66.66,0,0,1,.53-.25.67.67,0,0,1,.52.27l1.54,2,.12-.12a.68.68,0,0,1,.95,0,.66.66,0,0,1,0,.94l-.67.67a.66.66,0,0,1-.52.19.68.68,0,0,1-.49-.26l-1.48-2-2.13,2.66A.67.67,0,0,1,12,20Z"/></g></g></g></g></svg>