<svg xmlns="http://www.w3.org/2000/svg" xmlns:xlink="http://www.w3.org/1999/xlink" viewBox="0 0 24 24"><defs><style>.cls-1{fill:url(#未命名的渐变);}.cls-2{fill:#020e27;fill-rule:evenodd;}.cls-3{fill:#662e00;}</style><radialGradient id="未命名的渐变" cx="-239.93" cy="365.85" r="0.77" gradientTransform="matrix(24, 0, 0, -24, 5770.4, 8788.19)" gradientUnits="userSpaceOnUse"><stop offset="0" stop-color="#ffe5a3"/><stop offset="1" stop-color="#ffad29"/></radialGradient></defs><title>6-得意</title><g id="图层_2" data-name="图层 2"><g id="图层_1-2" data-name="图层 1"><g id="页面-1"><g id="第一排"><path id="路径" class="cls-1" d="M24,12A12,12,0,1,1,12,0,12,12,0,0,1,24,12"/><path class="cls-2" d="M.83,7.35C1,7.5,1.79,8,1.94,8.46s.48,3.19,1.44,4,4.72.52,5.44.16c1.59-.8,1.79-3,2.07-4.15.16-.64,1.12-.64,1.12-.64s1,0,1.12.64c.28,1.13.48,3.35,2.08,4.15.71.36,4.44.66,5.43-.16s1.28-3.51,1.44-4,1-1,1.11-1.11a1,1,0,0,0,0-1c-.32-.32-4.09-.6-8.14-.16a14.09,14.09,0,0,1-3,.32,14.09,14.09,0,0,1-3-.32c-4.05-.44-7.82-.16-8.14.16a1,1,0,0,0,0,1Z"/><path class="cls-3" d="M18.22,15.75a.35.35,0,0,0-.42,0A10.82,10.82,0,0,1,12,17.67a10.86,10.86,0,0,1-5.8-1.94.35.35,0,0,0-.42,0,.34.34,0,0,0-.07.42A7.68,7.68,0,0,0,12,19.67a7.68,7.68,0,0,0,6.29-3.5.34.34,0,0,0-.07-.42Z"/></g></g></g></g></svg>