<svg xmlns="http://www.w3.org/2000/svg" xmlns:xlink="http://www.w3.org/1999/xlink" viewBox="0 0 24 24"><defs><style>.cls-1{fill:url(#未命名的渐变);}.cls-2{fill:#662e00;}.cls-3{fill:#4db5ff;}.cls-4{fill:#ff5e61;}</style><radialGradient id="未命名的渐变" cx="-239.5" cy="365.85" r="0.77" gradientTransform="matrix(24, 0, 0, -24, 5760.08, 8788.19)" gradientUnits="userSpaceOnUse"><stop offset="0" stop-color="#ffe5a3"/><stop offset="1" stop-color="#ffad29"/></radialGradient></defs><title>7-大哭</title><g id="图层_2" data-name="图层 2"><g id="图层_1-2" data-name="图层 1"><g id="页面-1"><g id="第一排"><path id="路径" class="cls-1" d="M24,12A12,12,0,1,1,12,0,12,12,0,0,1,24,12"/><path id="形状" class="cls-2" d="M14.67,18c0,1.84-1.2,2-2.67,2s-2.67-.16-2.67-2,1.2-4,2.67-4S14.67,16.16,14.67,18ZM20,10a.74.74,0,0,1-.25-.05,11,11,0,0,1-5-3.58.67.67,0,1,1,1.11-.74,9.89,9.89,0,0,0,4.36,3.08.67.67,0,0,1,.37.87A.68.68,0,0,1,20,10ZM4,10a.68.68,0,0,1-.62-.42.67.67,0,0,1,.37-.87A9.89,9.89,0,0,0,8.11,5.63a.67.67,0,0,1,1.11.74,11,11,0,0,1-5,3.58A.74.74,0,0,1,4,10Z"/><path class="cls-3" d="M16,10.67h2.67V23.33L16,23.3ZM5.33,23.33,8,23.3V10.67H5.33Z"/><path class="cls-2" d="M10,12a.66.66,0,0,1-.3-.07,5.75,5.75,0,0,0-4.73,0,.67.67,0,1,1-.6-1.19,7.06,7.06,0,0,1,5.93,0A.66.66,0,0,1,10,12Zm9.33,0a.59.59,0,0,1-.29-.07,5.77,5.77,0,0,0-4.74,0,.67.67,0,1,1-.6-1.19,7.06,7.06,0,0,1,5.93,0,.66.66,0,0,1-.3,1.26Z"/><ellipse id="椭圆形" class="cls-3" cx="12" cy="22.67" rx="12" ry="1.33"/><ellipse class="cls-4" cx="12" cy="18" rx="2" ry="1.33"/></g></g></g></g></svg>