<svg xmlns="http://www.w3.org/2000/svg" viewBox="0 0 19.5 23.31"><defs><style>.cls-1{fill:#9eddff;}.cls-2{fill:#662113;}.cls-3{fill:#c1694f;}.cls-4{fill:#4db5ff;}.cls-5{fill:#ffe5a3;}.cls-6{fill:#ffc252;}.cls-7{fill:#f8353f;}.cls-8{fill:#2196f3;}.cls-9{fill:#75c940;}.cls-10{fill:#ff9500;}.cls-11{fill:#6354f4;}</style></defs><title>35-蛋糕</title><g id="图层_2" data-name="图层 2"><g id="图层_1-2" data-name="图层 1"><path id="路径" class="cls-1" d="M1.34,14.2s1,3.71,1.3,5.5c.3,2,2.31,3.61,7.13,3.61s6.84-1.59,7.14-3.61c.26-1.79,1.29-5.5,1.29-5.5Z"/><path class="cls-2" d="M1.4,14.26c.16.79.45,1.29.87,1s1.07-.12.87.41.63.71,1,.42,1-.57,1.07,0a.61.61,0,0,0,1.08.31.85.85,0,0,1,1.37.26c.17.52,1,.45,1.28.08a1,1,0,0,1,.85-.57v0c.39,0,.62.25.85.59s1.12.44,1.28-.08a.86.86,0,0,1,1.38-.26.6.6,0,0,0,1.07-.31c.07-.61.75-.31,1.08,0s1.15.06,1-.42.45-.67.87-.41.71-.24.87-1Z"/><path class="cls-3" d="M19.5,12.31c0-3.19-4.36-5.78-9.75-5.78S0,9.12,0,12.31c0,2.58,5.84,3.91,9.75,3.91S19.5,14.93,19.5,12.31Z"/><path id="形状" class="cls-4" d="M9.77,23a.32.32,0,0,1-.32-.32V17.1a.32.32,0,0,1,.32-.32.32.32,0,0,1,.33.32v5.61A.32.32,0,0,1,9.77,23Zm-4.34-.82a.32.32,0,0,1-.32-.28l-.67-5.18a.31.31,0,0,1,.28-.36.32.32,0,0,1,.36.28l.67,5.18a.32.32,0,0,1-.28.36Zm2.06.63a.31.31,0,0,1-.32-.29L6.71,17A.32.32,0,1,1,7.35,17l.46,5.52a.32.32,0,0,1-.29.35Zm-3.87-2a.24.24,0,0,1-.23-.19l-1-4.83a.24.24,0,0,1,.48-.09l1,4.82a.25.25,0,0,1-.19.29Zm10.45,1.27H14a.32.32,0,0,1-.27-.37l.73-5.11a.33.33,0,0,1,.37-.27.32.32,0,0,1,.27.37l-.73,5.1A.33.33,0,0,1,14.07,22.14Zm-2,.7h0a.33.33,0,0,1-.3-.35L12.23,17a.34.34,0,0,1,.35-.3.33.33,0,0,1,.3.35l-.46,5.53A.33.33,0,0,1,12.09,22.84ZM16,20.9h0a.23.23,0,0,1-.19-.28l.93-4.85a.24.24,0,0,1,.48.09l-.94,4.85a.24.24,0,0,1-.24.2Z"/><path class="cls-5" d="M9.07,0a2.51,2.51,0,0,0,1.41.76C12,.79,13.3,1.61,13.3,3c0,0,3.42,0,3.53,3,0,0,1.73,0,2.12,3,.29,2.25-2,5.34-9.18,5.31C3.42,14.37.17,12.11.6,9.09a3.21,3.21,0,0,1,2.82-3S3,2.27,7.65,2.27A5.54,5.54,0,0,1,9.07,0Z"/><path class="cls-6" d="M9.71,6.82c1.91-.72,3.65-2,3.59-3.79a2,2,0,0,0-.55-1.38c.42,1.82-2.37,3.9-5.45,4.22C3.45,6.28,3.89,4,3.89,4h0a3.69,3.69,0,0,0-.47,2C4,7.61,7,7.83,9.71,6.82Z"/><path class="cls-6" d="M16.83,6.06a2.3,2.3,0,0,0,0-.26,5.09,5.09,0,0,0-.5-1.38A2.28,2.28,0,0,0,15.89,4c.72,2.87-3.61,6.32-7.74,7.12C2.77,12.13.6,9.1.6,9.1A3.75,3.75,0,0,0,2.83,13C9.47,15.68,16.89,9,16.83,6.06Z"/><path class="cls-7" d="M3.73,9.22l-.76,1a.66.66,0,0,1-.91.14.65.65,0,0,1-.14-.91l.77-1.05a.64.64,0,0,1,.9-.14.65.65,0,0,1,.14.91Z"/><path class="cls-8" d="M7.78,5.32,6.52,5.05A.65.65,0,0,1,6,4.28a.64.64,0,0,1,.77-.5l1.27.27a.64.64,0,0,1,.49.77A.65.65,0,0,1,7.78,5.32Z"/><path class="cls-9" d="M8.75,9.2l.86,1a.65.65,0,0,1-.07.91A.64.64,0,0,1,8.63,11l-.85-1a.64.64,0,0,1,1-.85Z"/><path class="cls-10" d="M13.91,7.47l-1.22.45a.64.64,0,0,1-.83-.37.65.65,0,0,1,.37-.84l1.22-.46a.65.65,0,0,1,.46,1.22Z"/><path class="cls-11" d="M17.79,9.12l-.64,1.12a.65.65,0,0,1-.89.24A.64.64,0,0,1,16,9.6l.65-1.13a.65.65,0,0,1,.89-.23.64.64,0,0,1,.23.88Z"/></g></g></svg>