<?xml version="1.0" standalone="no"?><!DOCTYPE svg PUBLIC "-//W3C//DTD SVG 1.1//EN" "http://www.w3.org/Graphics/SVG/1.1/DTD/svg11.dtd"><svg t="1592989223008" class="icon" viewBox="0 0 1024 1024" version="1.1" xmlns="http://www.w3.org/2000/svg" p-id="60455" xmlns:xlink="http://www.w3.org/1999/xlink" width="200" height="200"><defs><style type="text/css"></style></defs><path d="M384.51 393.26m-56 0a56 56 0 1 0 112 0 56 56 0 1 0-112 0Z" fill="#595959" p-id="60456"></path><path d="M639.49 393.26m-56 0a56 56 0 1 0 112 0 56 56 0 1 0-112 0Z" fill="#595959" p-id="60457"></path><path d="M512 800.76c-59.15 0-115.31-19.86-162.41-57.43a276.29 276.29 0 0 1-93.23-140.76A37 37 0 0 1 292 555.65h440a37 37 0 0 1 35.64 46.92 276.29 276.29 0 0 1-93.23 140.76c-47.1 37.57-103.26 57.43-162.41 57.43zM347.55 629.65a201.7 201.7 0 0 0 48.19 55.83c33.85 27 74.05 41.28 116.26 41.28s82.41-14.27 116.26-41.28a201.7 201.7 0 0 0 48.19-55.83z" fill="#2196F3" p-id="60458"></path><path d="M512 959a447.11 447.11 0 0 1-174-858.86 447.11 447.11 0 0 1 348 823.72A444.18 444.18 0 0 1 512 959z m0-818a371 371 0 1 0 262.34 108.66A368.6 368.6 0 0 0 512 141z" fill="#595959" p-id="60459"></path></svg>