<svg xmlns="http://www.w3.org/2000/svg" xmlns:xlink="http://www.w3.org/1999/xlink" viewBox="0 0 24 24"><defs><style>.cls-1{fill:url(#未命名的渐变);}.cls-2{fill:#664500;}.cls-3{fill:#662e00;}.cls-4{fill:#e2a62d;}.cls-5{fill:#f8353f;}.cls-6{fill:#ff8383;}.cls-7{fill:#2296f3;}.cls-8{fill:#9eddff;}.cls-9{fill:#0754a6;}.cls-10{fill:#4eb5ff;}.cls-11{fill:#ff5e61;}.cls-12{fill:#75c940;}</style><radialGradient id="未命名的渐变" cx="-239.18" cy="364.98" r="0.77" gradientTransform="matrix(22.67, 0, 0, -22.67, 5432.76, 8281.51)" gradientUnits="userSpaceOnUse"><stop offset="0" stop-color="#ffe5a3"/><stop offset="1" stop-color="#ffad29"/></radialGradient></defs><title>兴奋</title><g id="图层_2" data-name="图层 2"><g id="图层_1-2" data-name="图层 1"><g id="页面-1"><g id="第一排"><circle id="椭圆形" class="cls-1" cx="11.33" cy="12.67" r="11.33"/><ellipse class="cls-2" cx="12" cy="17.33" rx="1.33" ry="1.67"/><path id="形状" class="cls-3" d="M5.41,14.26a.69.69,0,0,1-.36-.11.67.67,0,0,1-.21-.92,4.78,4.78,0,0,1,5.13-2,.66.66,0,1,1-.32,1.29A3.48,3.48,0,0,0,6,13.94a.64.64,0,0,1-.56.32Zm8-2.5a.69.69,0,0,1-.52-.24.67.67,0,0,1,.1-.94,4.76,4.76,0,0,1,5.47-.43.66.66,0,0,1,.21.92.67.67,0,0,1-.92.21,3.42,3.42,0,0,0-3.92.33A.66.66,0,0,1,13.39,11.76Z"/><path class="cls-4" d="M8.9,20.85l-.14,0a.5.5,0,0,1-.34-.62,3.19,3.19,0,0,0-.33-2.72,1.75,1.75,0,0,0-1.3-.79.49.49,0,0,1-.46-.53.48.48,0,0,1,.53-.46,2.71,2.71,0,0,1,2,1.2,4.17,4.17,0,0,1,.48,3.57A.5.5,0,0,1,8.9,20.85Zm7.36-2a.57.57,0,0,1-.28-.08,2.81,2.81,0,0,1-1.19-2.47,3.11,3.11,0,0,1,1.32-2.58.51.51,0,0,1,.69.17.51.51,0,0,1-.17.69,2.1,2.1,0,0,0-.84,1.74,1.79,1.79,0,0,0,.74,1.61.5.5,0,0,1,.14.69.48.48,0,0,1-.41.23Z"/><path id="路径" class="cls-5" d="M11.45,1.81a.23.23,0,0,0-.12-.06S.71-.26.25.14.49,11.33.49,11.33a.22.22,0,0,0,.05.13c.4.46,3.17-1.33,6.18-4s5.14-5.19,4.73-5.65Z"/><path class="cls-6" d="M.23.18a.19.19,0,0,0,0,.08C.31,1.18,1.34,8.7,2,11.05A24.38,24.38,0,0,0,5.05,8.88C4.08,7.1.77.1.23.18Z"/><path class="cls-7" d="M19.93,19.49l-7-.87c-.76-.07-2.08-.08-2-1.27s1.36-.92,2.32-.77l7.09,1.18-.36,1.73Z"/><path class="cls-8" d="M20.29,17.76l-2.82-.48c-.33-.06-.62.43-.64.95s.16.87.49.93l2.76.35.21-1.75Z"/><path class="cls-7" d="M23.28,17.56l-1.75,1.61-3.12-3.4,1.74-1.61a2.25,2.25,0,0,1,3.17.14l.09.09A2.24,2.24,0,0,1,23.28,17.56Z"/><ellipse class="cls-8" cx="19.97" cy="17.47" rx="1.85" ry="2.31" transform="translate(-6.56 18.12) rotate(-42.6)"/><ellipse class="cls-9" cx="19.97" cy="17.47" rx="1" ry="1.38" transform="translate(-6.56 18.12) rotate(-42.6)"/><circle class="cls-10" cx="1.67" cy="22.33" r="1"/><circle class="cls-10" cx="19.33" cy="1.33" r="1.33"/><polygon class="cls-11" points="3.24 19.5 1.68 15.75 0.28 19.78 3.24 19.5"/><polygon class="cls-5" points="17.33 3.33 14.67 4 15.33 1.33 17.33 3.33"/><polygon class="cls-12" points="21.33 8.67 24 5.33 22 4 21.33 8.67"/></g></g></g></g></svg>