<svg xmlns="http://www.w3.org/2000/svg" xmlns:xlink="http://www.w3.org/1999/xlink" viewBox="0 0 22.67 23.9"><defs><style>.cls-1{fill:url(#未命名的渐变);}.cls-2{fill:#662e00;}.cls-3{fill:#ff5e61;}.cls-4{fill:#ff8987;}.cls-5{fill:#f19020;}.cls-6{fill:#f83640;}.cls-7{fill:#d12231;}.cls-8{fill:#ffcb4c;}</style><radialGradient id="未命名的渐变" cx="-210.41" cy="426.44" r="0.77" gradientTransform="matrix(0, 16.17, 16.17, 0, -6882.84, 3414.54)" gradientUnits="userSpaceOnUse"><stop offset="0" stop-color="#ffe5a3"/><stop offset="1" stop-color="#ffad29"/></radialGradient></defs><title>18-发怒</title><g id="图层_2" data-name="图层 2"><g id="图层_1-2" data-name="图层 1"><path id="路径" class="cls-1" d="M22.67,12.31a4.58,4.58,0,0,0-4.58-4.57,8.26,8.26,0,0,0-1.84.38L7.5,9A8.08,8.08,0,0,0,4.58,8,4.58,4.58,0,0,0,0,12.57c0,.16,0,.31,0,.47a11.33,11.33,0,0,0,22.65-.47s0-.07,0-.1S22.67,12.37,22.67,12.31Z"/><ellipse id="椭圆形" class="cls-2" cx="11.33" cy="18.99" rx="2.89" ry="3.3"/><path id="形状" class="cls-2" d="M8.67,13.64c0,1-.6,1.78-1.34,1.78S6,14.62,6,13.64s.6-1.78,1.33-1.78S8.67,12.66,8.67,13.64Zm8,0c0,1-.6,1.78-1.34,1.78S14,14.62,14,13.64s.6-1.78,1.33-1.78,1.34.8,1.34,1.78Z"/><path class="cls-3" d="M20.08,2.39a1.63,1.63,0,0,0-.45.07,2.47,2.47,0,0,0-1.94-.93h-.17A2.64,2.64,0,0,0,13.21,2a1.49,1.49,0,0,0-1.38-.91,1.47,1.47,0,0,0-1.17.58,2.48,2.48,0,0,0-4.45-.54,2.45,2.45,0,0,0-.38,0A2.48,2.48,0,0,0,3.64,2.44a2,2,0,0,0-.42,0,2.25,2.25,0,0,0,0,4.5A2.21,2.21,0,0,0,4.3,6.61a1.48,1.48,0,0,0,.89.31,1.43,1.43,0,0,0,.29,0A3.2,3.2,0,0,0,8.22,8.42,3.25,3.25,0,0,0,10.93,7a2.6,2.6,0,0,0,4.54-1h.06a2.44,2.44,0,0,0,.55-.06,2.46,2.46,0,0,0,1.62.61,2.5,2.5,0,0,0,1.93-.93,1.63,1.63,0,0,0,.45.07,1.64,1.64,0,1,0,0-3.28Z"/><circle class="cls-4" cx="17.86" cy="3.75" r="1.41"/><path class="cls-4" d="M12.58,3.84A1.43,1.43,0,0,0,11.14,2.4a1.39,1.39,0,0,0-.67.17,1.11,1.11,0,0,0-1.94-.2,2.46,2.46,0,0,0-1.7-.68A2.49,2.49,0,0,0,4.42,3.58a1.37,1.37,0,0,0-1-.39A1.34,1.34,0,1,0,4.58,5.27,2.5,2.5,0,0,0,6.42,6.65a1.48,1.48,0,0,0,1.29.75A1.5,1.5,0,0,0,9.17,6.23a1.49,1.49,0,0,0,2.18-1,1.44,1.44,0,0,0,1.23-1.42Z"/><path class="cls-5" d="M3.81,10a.18.18,0,0,0,.07,0l.09.07a7.41,7.41,0,0,0,1.53.59c.23.05.47.11.74.15,1.16.2,1.13-.41,2.43-.44.76,0,1.19.51,1.75.82,1,.55,1.72-.49,2.48-.49.57,0,1.48.81,2.12.51,1-.48,1.12-.88,1.86-.88s1,.39,1.45.48a2.74,2.74,0,0,0,.36-.23s1.83-1.26.73-1.55c-.63-.16-.67.26-1.47.16s.29-.49-.13-.72-1.92.27-3.71,1.16c-.48.23-5.49.13-6.47-.41-2.14-1.16-2.31.43-3-.2A1,1,0,0,0,3.51,9a.36.36,0,0,0-.15.37A1.13,1.13,0,0,0,3.81,10Z"/><path class="cls-6" d="M8.67,10.41c.76,0,1.19.51,1.75.82,1,.55,1.72-.49,2.48-.49.57,0,1.48.81,2.12.51a12,12,0,0,0,1.25-.75,12.57,12.57,0,0,1,2.62-4.3,2.41,2.41,0,0,1-1.19.33,2.46,2.46,0,0,1-1.62-.61,2.44,2.44,0,0,1-.55.06h-.06a2.6,2.6,0,0,1-4.54,1A3.25,3.25,0,0,1,8.22,8.42,3.2,3.2,0,0,1,5.48,6.89a1.43,1.43,0,0,1-.29,0,1.48,1.48,0,0,1-.89-.31A2,2,0,0,1,4,6.74a13.86,13.86,0,0,1,2.4,4.13C7.39,11,7.44,10.44,8.67,10.41Z"/><path class="cls-7" d="M17.7,6.53a2.46,2.46,0,0,1-1.62-.61,2.44,2.44,0,0,1-.55.06h-.06a2.6,2.6,0,0,1-4.54,1A3.25,3.25,0,0,1,8.22,8.42,3.2,3.2,0,0,1,5.48,6.89a1.43,1.43,0,0,1-.29,0,1.48,1.48,0,0,1-.89-.31A1.69,1.69,0,0,1,4,6.74,15.87,15.87,0,0,1,5.44,8.82S8.61,10.42,11,8.4a3.69,3.69,0,0,0,5-1.07,6.55,6.55,0,0,0,1.64.35,12.06,12.06,0,0,1,1.12-1.42A2.43,2.43,0,0,1,17.7,6.53Z"/><path class="cls-8" d="M19.34,10.53c-1.17.85-1.4-.16-2.46-.16-.74,0-.82.4-1.86.88-.64.3-1.55-.51-2.12-.51-.76,0-1.48,1-2.48.49-.56-.31-1-.84-1.75-.82-1.3,0-1.27.64-2.43.44-3-.5-2.9-1.58-2.9-1.58L2.9,12.09H9.15l2.53,1.2,3-1.2h3.66s.43-.12.73-.23c1.06-.38,1.19-2,.3-1.33Z"/></g></g></svg>