<svg xmlns="http://www.w3.org/2000/svg" xmlns:xlink="http://www.w3.org/1999/xlink" viewBox="0 0 24 24"><defs><style>.cls-1{fill:url(#未命名的渐变);}.cls-2{fill:#662e00;}.cls-3{fill:#ffac33;}.cls-4{fill:#f83640;}</style><radialGradient id="未命名的渐变" cx="-286.23" cy="403.41" r="0.77" gradientTransform="matrix(24, 0, 0, -24, 6881.45, 9689.65)" gradientUnits="userSpaceOnUse"><stop offset="0" stop-color="#ffe5a3"/><stop offset="1" stop-color="#ffad29"/></radialGradient></defs><title>14-飞吻</title><g id="图层_2" data-name="图层 2"><g id="图层_1-2" data-name="图层 1"><circle id="椭圆形" class="cls-1" cx="12" cy="12" r="12"/><ellipse class="cls-2" cx="7.67" cy="10.33" rx="1.67" ry="2.33"/><path id="形状" class="cls-2" d="M19,11.86c0-.09-1-2.19-3-2.19s-2.93,2.1-3,2.19a.34.34,0,0,0,.1.4.33.33,0,0,0,.4,0,4.42,4.42,0,0,1,2.47-.6,4.4,4.4,0,0,1,2.47.6.36.36,0,0,0,.2.06.31.31,0,0,0,.2-.07.34.34,0,0,0,.1-.4ZM4,7.33a.66.66,0,0,1-.4-.13.67.67,0,0,1-.13-.93,7,7,0,0,1,5.2-2.94.67.67,0,0,1,0,1.34,5.6,5.6,0,0,0-4.14,2.4A.67.67,0,0,1,4,7.33Zm15.33,2a.67.67,0,0,1-.53-.26,5,5,0,0,0-4.67-1.75.66.66,0,0,1-.78-.52A.67.67,0,0,1,13.87,6a6.28,6.28,0,0,1,6,2.26.67.67,0,0,1-.54,1.06ZM13.39,18c.89-.28,1.75-.77,1.75-1.67,0-1.74-3.28-2-3.65-2a.33.33,0,0,0-.35.31.34.34,0,0,0,.31.36s2.36.2,2.36,1.33-2.34,1.33-2.36,1.34h0l-.09,0h0a.21.21,0,0,0-.08.06l0,0,0,.07s0,0,0,.06,0,0,0,.05v0s0,0,0,0,0,.05,0,.06l0,.06,0,.05.06,0,.05,0,.06,0h0s2.36.2,2.36,1.34S11.47,21,11.45,21a.33.33,0,0,0-.31.35.34.34,0,0,0,.33.32h0c.37,0,3.65-.25,3.65-2,0-.9-.86-1.4-1.75-1.67Z"/><path id="路径" class="cls-3" d="M22.8,17.2A2.06,2.06,0,0,0,21.75,16a2,2,0,0,0-1.86,0,2,2,0,0,0-3.84-.55,1.76,1.76,0,0,0-.15.44,6.35,6.35,0,0,0,1.46,5.3,6.61,6.61,0,0,0,3-.59A11.88,11.88,0,0,0,22.8,17.2Z"/><path class="cls-4" d="M23.77,18.15A2,2,0,0,0,21,15.46a2,2,0,0,0-3.84-.55,1.76,1.76,0,0,0-.15.44,6.37,6.37,0,0,0,1.46,5.3,6.38,6.38,0,0,0,5.08-2.11A2.59,2.59,0,0,0,23.77,18.15Z"/></g></g></svg>