<svg xmlns="http://www.w3.org/2000/svg" xmlns:xlink="http://www.w3.org/1999/xlink" viewBox="0 0 24 24"><defs><style>.cls-1{fill:url(#未命名的渐变);}.cls-2{fill:#662e00;}.cls-3{fill:#f83640;}</style><radialGradient id="未命名的渐变" cx="-239.07" cy="365.85" r="0.77" gradientTransform="matrix(24, 0, 0, -24, 5749.76, 8788.19)" gradientUnits="userSpaceOnUse"><stop offset="0" stop-color="#ffe5a3"/><stop offset="1" stop-color="#ffad29"/></radialGradient></defs><title>色</title><g id="图层_2" data-name="图层 2"><g id="图层_1-2" data-name="图层 1"><g id="页面-1"><g id="第一排"><path id="路径" class="cls-1" d="M24,12A12,12,0,1,1,12,0,12,12,0,0,1,24,12"/><path class="cls-2" d="M12,14.57A22.74,22.74,0,0,1,7.09,14C6.72,14,6,14,6,15.11,6,17.3,8.5,20,12,20s6-2.72,6-4.91C18,14,17.28,14,16.91,14a22.74,22.74,0,0,1-4.91.55"/><path id="形状" class="cls-3" d="M11.1,2.19a3.11,3.11,0,0,0-5.92.17A3.11,3.11,0,0,0,.46,5.94a3,3,0,0,0,.32.64C2.08,9,5.83,10.65,8.11,10.67c1.76-1.45,3.63-5.11,3.15-7.79A3.44,3.44,0,0,0,11.1,2.19Zm1.8,0a3.11,3.11,0,0,1,5.92.17,3.11,3.11,0,0,1,4.72,3.58,3,3,0,0,1-.32.64c-1.3,2.39-5,4.07-7.33,4.09-1.76-1.45-3.63-5.11-3.14-7.79A2.85,2.85,0,0,1,12.9,2.19Z"/></g></g></g></g></svg>