<svg xmlns="http://www.w3.org/2000/svg" xmlns:xlink="http://www.w3.org/1999/xlink" viewBox="0 0 24 24"><defs><style>.cls-1{fill:url(#未命名的渐变);}.cls-2{fill:#662e00;}.cls-3{fill:#56a32c;}.cls-4{fill:#fff;}</style><radialGradient id="未命名的渐变" cx="-239.08" cy="365.85" r="0.77" gradientTransform="matrix(24, 0, 0, -24, 5750, 8788.19)" gradientUnits="userSpaceOnUse"><stop offset="0" stop-color="#ffe5a3"/><stop offset="1" stop-color="#ffad29"/></radialGradient></defs><title>29-财迷</title><g id="图层_2" data-name="图层 2"><g id="图层_1-2" data-name="图层 1"><g id="页面-1"><path id="路径" class="cls-1" d="M24,12A12,12,0,1,1,12,0,12,12,0,0,1,24,12"/><path class="cls-2" d="M4.67,14.18c0,2.64,3.06,6,7.33,6s7.33-3.34,7.33-6A33.43,33.43,0,0,1,4.67,14.18Z"/><path class="cls-3" d="M8,15.34V20a3.84,3.84,0,0,0,4,4,3.84,3.84,0,0,0,4-4V15.36a21,21,0,0,1-8,0Z"/><path id="形状" class="cls-2" d="M8.19,8.22c-.5-.19-1-.38-1-.65,0-.43.59-.46.71-.46a1.17,1.17,0,0,1,.8.3.84.84,0,0,0,.49.21.5.5,0,0,0,.55-.51c0-.49-.6-.84-1.24-1V5.87a.63.63,0,1,0-1.25,0v.28A1.54,1.54,0,0,0,6,7.64c0,.87.86,1.23,1.62,1.55.54.23,1.06.44,1.06.77s-.31.51-.8.51a1.69,1.69,0,0,1-1-.37.94.94,0,0,0-.54-.24.52.52,0,0,0-.51.55c0,.45.62.9,1.44,1.06v.31a.63.63,0,1,0,1.25,0v-.33A1.64,1.64,0,0,0,9.89,9.81c0-.93-.94-1.3-1.7-1.59Zm9.61,1.6c0-.93-.95-1.3-1.71-1.59-.5-.19-1-.38-1-.64,0-.44.59-.47.71-.47a1.17,1.17,0,0,1,.81.3.81.81,0,0,0,.49.21.5.5,0,0,0,.54-.51c0-.49-.6-.83-1.24-1V5.88a.63.63,0,1,0-1.25,0v.28a1.56,1.56,0,0,0-1.23,1.49c0,.88.86,1.24,1.62,1.55.55.23,1.06.44,1.06.78s-.3.5-.8.5a1.71,1.71,0,0,1-1-.37,1,1,0,0,0-.53-.24.53.53,0,0,0-.52.55c0,.45.63.9,1.44,1.06v.32a.63.63,0,0,0,1.25,0v-.34A1.64,1.64,0,0,0,17.8,9.82Z"/><path class="cls-4" d="M14,20.71c0-.91-.92-1.26-1.66-1.55-.49-.19-1-.37-1-.63,0-.43.57-.45.69-.45a1.13,1.13,0,0,1,.78.29.81.81,0,0,0,.48.21.5.5,0,0,0,.53-.5c0-.48-.58-.82-1.21-1v-.25a.61.61,0,0,0-.61-.61.61.61,0,0,0-.61.61v.27a1.53,1.53,0,0,0-1.2,1.46c0,.85.84,1.2,1.58,1.51.54.22,1,.43,1,.75s-.3.5-.78.5A1.65,1.65,0,0,1,11,21a.94.94,0,0,0-.52-.23.51.51,0,0,0-.5.53c0,.45.6.88,1.4,1v.31a.61.61,0,0,0,.61.6.6.6,0,0,0,.61-.6v-.33A1.6,1.6,0,0,0,14,20.71Z"/></g></g></g></svg>