<svg xmlns="http://www.w3.org/2000/svg" xmlns:xlink="http://www.w3.org/1999/xlink" viewBox="0 0 24 24"><defs><style>.cls-1{fill:url(#未命名的渐变);}.cls-2{fill:#662e00;}</style><radialGradient id="未命名的渐变" cx="-239.08" cy="365.85" r="0.77" gradientTransform="matrix(24, 0, 0, -24, 5750, 8788.19)" gradientUnits="userSpaceOnUse"><stop offset="0" stop-color="#ffe5a3"/><stop offset="1" stop-color="#ffad29"/></radialGradient></defs><title>27-忧伤</title><g id="图层_2" data-name="图层 2"><g id="图层_1-2" data-name="图层 1"><g id="页面-1"><circle id="椭圆形" class="cls-1" cx="12" cy="12" r="12"/><path id="形状" class="cls-2" d="M15.66,19.25A3.93,3.93,0,0,0,12,16.33a3.93,3.93,0,0,0-3.66,2.92.35.35,0,0,0,.16.37.37.37,0,0,0,.4,0S9.57,19,12,19s3.08.55,3.1.58a.35.35,0,0,0,.23.09.35.35,0,0,0,.33-.42ZM7.48,10.34a2.72,2.72,0,0,0-.63.08c-1.91.47-2.34,2.75-2.36,2.84a.34.34,0,0,0,.19.36.35.35,0,0,0,.14,0,.34.34,0,0,0,.26-.12,4.48,4.48,0,0,1,2.25-1.17,5.69,5.69,0,0,1,1.38-.18,3.36,3.36,0,0,1,1.16.17.32.32,0,0,0,.14,0,.34.34,0,0,0,.34-.33.35.35,0,0,0-.14-.27,3.89,3.89,0,0,0-2.73-1.44Zm9,0a2.72,2.72,0,0,1,.63.08c1.91.47,2.34,2.75,2.36,2.84a.34.34,0,0,1-.19.36.35.35,0,0,1-.14,0,.34.34,0,0,1-.26-.12,4.48,4.48,0,0,0-2.25-1.17,5.69,5.69,0,0,0-1.38-.18,3.36,3.36,0,0,0-1.16.17.32.32,0,0,1-.14,0,.34.34,0,0,1-.34-.33.35.35,0,0,1,.14-.27,3.89,3.89,0,0,1,2.73-1.44Z"/></g></g></g></svg>