<svg xmlns="http://www.w3.org/2000/svg" viewBox="0 0 24 24"><defs><style>.cls-1{fill:#bf6952;}.cls-2{fill:#f5f8fa;}.cls-3{fill:#272727;}.cls-4{fill:#5e0515;}.cls-5{fill:#f2abba;}</style></defs><title>35-便便</title><g id="图层_2" data-name="图层 2"><g id="图层_1-2" data-name="图层 1"><path id="路径" class="cls-1" d="M22.36,15.46a5.41,5.41,0,0,0-2.49-5.81,3.7,3.7,0,0,0-.21-2.5,4.16,4.16,0,0,0-3.14-2.37,2,2,0,0,0,0-1.45c-.67-2-3.33-.66-5.33-3.33A3.8,3.8,0,0,0,9.29,3.66a14.62,14.62,0,0,0-2.53.62h0a2.48,2.48,0,0,0-1.55,2.3,2.45,2.45,0,0,0,.55,1.54l-.46.17h0a3.94,3.94,0,0,0-2.65,3.63,3.64,3.64,0,0,0,.55,1.92A5.3,5.3,0,0,0,0,18.67,5.42,5.42,0,0,0,5.5,24a21,21,0,0,0,6.35-1.11A17.93,17.93,0,0,0,19.11,24a4.89,4.89,0,0,0,3.25-8.54Z"/><ellipse id="椭圆形" class="cls-2" cx="9" cy="10.33" rx="2.33" ry="3"/><ellipse class="cls-2" cx="15.67" cy="10.33" rx="2.33" ry="3"/><ellipse class="cls-3" cx="9.33" cy="10.33" rx="1.33" ry="1.67"/><ellipse class="cls-3" cx="15.33" cy="10.33" rx="1.33" ry="1.67"/><path class="cls-4" d="M6.3,16.6a.38.38,0,0,1,.37-.6h12a.38.38,0,0,1,.37.6A7.06,7.06,0,0,1,12.67,20,7,7,0,0,1,6.3,16.6Z"/><path class="cls-5" d="M12.67,17.33a5.66,5.66,0,0,0-4.2,1.51A7.71,7.71,0,0,0,12.67,20a7.65,7.65,0,0,0,4.19-1.16A5.65,5.65,0,0,0,12.67,17.33Z"/></g></g></svg>