<svg xmlns="http://www.w3.org/2000/svg" xmlns:xlink="http://www.w3.org/1999/xlink" viewBox="0 0 24 24"><defs><style>.cls-1{fill:url(#未命名的渐变);}.cls-2{fill:#662e00;}</style><radialGradient id="未命名的渐变" cx="-239.08" cy="365.85" r="0.77" gradientTransform="matrix(24, 0, 0, -24, 5750, 8788.19)" gradientUnits="userSpaceOnUse"><stop offset="0" stop-color="#ffe5a3"/><stop offset="1" stop-color="#ffad29"/></radialGradient></defs><title>30-释然</title><g id="图层_2" data-name="图层 2"><g id="图层_1-2" data-name="图层 1"><g id="页面-1"><path id="路径" class="cls-1" d="M24,12A12,12,0,1,1,12,0,12,12,0,0,1,24,12"/><path id="形状" class="cls-2" d="M18.87,10.41a.32.32,0,0,0-.4,0A4.53,4.53,0,0,1,16,11a4.53,4.53,0,0,1-2.47-.6.32.32,0,0,0-.4,0,.32.32,0,0,0-.1.39c0,.09,1,2.2,3,2.2s2.93-2.11,3-2.2A.32.32,0,0,0,18.87,10.41Zm-8.4,0A4.53,4.53,0,0,1,8,11a4.53,4.53,0,0,1-2.47-.6.32.32,0,0,0-.4,0,.32.32,0,0,0-.1.39c0,.09,1,2.2,3,2.2s2.93-2.11,3-2.2a.32.32,0,0,0-.1-.39A.32.32,0,0,0,10.47,10.4Zm8.86-1.73a.68.68,0,0,1-.53-.27,5,5,0,0,0-4.67-1.75.66.66,0,0,1-.26-1.3,6.24,6.24,0,0,1,6,2.25.66.66,0,0,1-.14.93.67.67,0,0,1-.4.14Zm-14.66,0a.67.67,0,0,1-.4-.14.66.66,0,0,1-.14-.93,6.26,6.26,0,0,1,6-2.25.66.66,0,0,1-.26,1.3A5,5,0,0,0,5.2,8.4.68.68,0,0,1,4.67,8.67ZM15.5,15.72a.33.33,0,0,0-.4,0s-.67.57-3.1.57-3.1-.57-3.1-.57a.35.35,0,0,0-.4,0,.34.34,0,0,0-.16.37A3.93,3.93,0,0,0,12,19a3.93,3.93,0,0,0,3.66-2.92.33.33,0,0,0-.16-.36Z"/></g></g></g></svg>