<svg xmlns="http://www.w3.org/2000/svg" viewBox="0 0 24 24"><defs><style>.cls-1{fill:#f3d2a2;}.cls-2{fill:#f83640;}.cls-3{fill:#662e00;}.cls-4{fill:#b35c00;}.cls-5{fill:#f0f1f5;}.cls-6{fill:#f1f2f2;}.cls-7{fill:#f5f6fa;}.cls-8{fill:#d1d3d4;}</style></defs><title>41-圣诞老人</title><g id="图层_2" data-name="图层 2"><g id="图层_1-2" data-name="图层 1"><path class="cls-1" d="M18.33,11.33a1,1,0,0,0-.37.08c-.38-5.23-3.8-9.33-8-9.33s-7.58,4.1-8,9.33a1,1,0,0,0-.37-.08C.75,11.33,0,12.53,0,14s.75,2.67,1.67,2.67a1.25,1.25,0,0,0,.91-.45C3.77,20,6.64,22.67,10,22.67s6.23-2.67,7.42-6.45a1.25,1.25,0,0,0,.91.45c.92,0,1.67-1.2,1.67-2.67S19.25,11.33,18.33,11.33Z"/><path class="cls-2" d="M21.33,16.67a2.76,2.76,0,0,1,.91.16c.1-.78.25-1.75.43-2.83.66-4,.35-14-9.34-14h-.66C6,0,1.33,3.05,1.33,6S5.58,8.67,10,8.67c3,0,5.1,0,6.64-.06l0,.06L20,17A2.69,2.69,0,0,1,21.33,16.67Z"/><path id="形状" class="cls-3" d="M6.67,14A.67.67,0,0,1,6,13.33V12a.67.67,0,1,1,1.33,0v1.33A.67.67,0,0,1,6.67,14Zm6.66,0a.66.66,0,0,1-.66-.67V12a.66.66,0,0,1,.66-.67A.67.67,0,0,1,14,12v1.33A.67.67,0,0,1,13.33,14Z"/><path class="cls-4" d="M10.67,17.33H9.33a.66.66,0,0,1-.66-.66A.67.67,0,0,1,9.33,16h1.34a.67.67,0,0,1,.66.67A.66.66,0,0,1,10.67,17.33Z"/><path class="cls-5" d="M18,16.67c0-1.34-1.53-.47-2,0-.67.66-2,2-3.33,1.33-1.89-.94-2.67-.67-2.67-.67s-.78-.27-2.67.67C6,18.67,4.67,17.33,4,16.67c-.47-.47-2-1.34-2,0S2.67,18,2.67,18a1.46,1.46,0,0,0,.66,2,2,2,0,0,0,2,2C5.33,24,8,23.33,8,23.33a3.32,3.32,0,0,0,4,0S14.67,24,14.67,22a2,2,0,0,0,2-2,1.46,1.46,0,0,0,.66-2S18,18,18,16.67Z"/><path class="cls-1" d="M10,18.67c4.67,0,2.67,1.33,0,1.33S5.33,18.67,10,18.67Z"/><circle class="cls-6" cx="21.33" cy="19.33" r="2.67"/><path class="cls-7" d="M19.33,8A1.32,1.32,0,0,1,18,9.33H1.33A1.33,1.33,0,0,1,0,8V7.33A1.34,1.34,0,0,1,1.33,6H18a1.33,1.33,0,0,1,1.33,1.33Z"/><path class="cls-8" d="M18,9.33H16c0,1.48.6,2.67,1.33,2.67s1.34-1.19,1.34-2.67c0-.06,0-.13,0-.19A1.37,1.37,0,0,1,18,9.33Z"/></g></g></svg>