<svg xmlns="http://www.w3.org/2000/svg" xmlns:xlink="http://www.w3.org/1999/xlink" viewBox="0 0 24 24"><defs><style>.cls-1{fill:url(#未命名的渐变);}.cls-2{fill:#662e00;}</style><radialGradient id="未命名的渐变" cx="-290.84" cy="391.94" r="0.77" gradientTransform="matrix(24, 0, 0, -24, 6992.28, 9414.26)" gradientUnits="userSpaceOnUse"><stop offset="0" stop-color="#ffe5a3"/><stop offset="1" stop-color="#ffad29"/></radialGradient></defs><title>23-坏笑</title><g id="图层_2" data-name="图层 2"><g id="图层_1-2" data-name="图层 1"><path id="路径" class="cls-1" d="M24,12A12,12,0,1,1,12,0,12,12,0,0,1,24,12"/><path id="形状" class="cls-2" d="M16.22,15.75a.34.34,0,0,0-.37-.05L13.18,17c-1.24.62-4.48.63-4.51.63a.34.34,0,0,0-.34.33.34.34,0,0,0,.17.29h0a.29.29,0,0,0,.16,0h4.67a3.27,3.27,0,0,0,3-2.22.35.35,0,0,0-.1-.36Zm4.45-5.08a.68.68,0,0,1-.54-.27A5.6,5.6,0,0,0,16,8a.67.67,0,0,1,0-1.33A6.94,6.94,0,0,1,21.2,9.6a.67.67,0,0,1-.53,1.07Zm-17.34,0A.67.67,0,0,1,2.8,9.6,6.93,6.93,0,0,1,8,6.67.67.67,0,1,1,8,8a5.62,5.62,0,0,0-4.13,2.4A.68.68,0,0,1,3.33,10.67Zm7.27.93s0-.07.05-.11a.66.66,0,0,0-.49-.8,7.21,7.21,0,0,0-5.2.75.67.67,0,0,0,.37,1.23.63.63,0,0,0,.37-.12A4.69,4.69,0,0,1,8,11.85.77.77,0,0,0,8,12a1.34,1.34,0,0,0,2.67,0,1.34,1.34,0,0,0-.07-.4Zm8,0a.93.93,0,0,1,0-.1.67.67,0,0,0-.49-.81,7.18,7.18,0,0,0-5.2.76.66.66,0,0,0-.18.92.68.68,0,0,0,.55.3.63.63,0,0,0,.37-.12,4.69,4.69,0,0,1,2.32-.7A.77.77,0,0,0,16,12a1.34,1.34,0,0,0,2.67,0,1.29,1.29,0,0,0-.07-.4Z"/></g></g></svg>