<svg xmlns="http://www.w3.org/2000/svg" viewBox="0 0 21.35 23.84"><defs><style>.cls-1{fill:#f3d2a2;}.cls-2{fill:#d2a077;}</style></defs><title>48-踩</title><g id="图层_2" data-name="图层 2"><g id="图层_1-2" data-name="图层 1"><g id="页面-1"><path id="路径" class="cls-1" d="M21.35,12.06a2.09,2.09,0,0,1-.22.93c-.89,2.89-5.08,2.68-11,2.82-1,0-.43,1.19-.08,3.77.23,1.68-.85,4.26-2.67,4.26-3,0-.12-2.37-2.77-8.22C3.17,12.5,0,14.25,0,11.11V4c0-1.23.12-2.4,1.84-2.59S3.13,0,5.53,0h12a2.22,2.22,0,0,1,1.76,3.57A2.22,2.22,0,0,1,20.47,5.5,2.16,2.16,0,0,1,20,6.84a2.22,2.22,0,0,1,.51,3.5A2.18,2.18,0,0,1,21.35,12.06Z"/><path class="cls-2" d="M13.39,9.83h5.73A2.22,2.22,0,0,1,21,10.92a.57.57,0,0,1-.2.8.58.58,0,0,1-.8-.2,1.07,1.07,0,0,0-.91-.52H13.25a1.06,1.06,0,1,0,0,2.11h3.92a.59.59,0,1,1,0,1.17H13.25A2.22,2.22,0,0,1,11,12.06a2.2,2.2,0,0,1,.8-1.7A2.21,2.21,0,0,1,12,7.08a2.22,2.22,0,0,1,.28-3.39,2.19,2.19,0,0,1-.57-1.47A2.23,2.23,0,0,1,13.91,0h3.65a2.22,2.22,0,0,1,1.91,1.09.58.58,0,0,1-.2.8.59.59,0,0,1-.8-.21,1.08,1.08,0,0,0-.91-.51H13.91a1.06,1.06,0,1,0,0,2.11h4.33a2.25,2.25,0,0,1,1.92,1.09.58.58,0,1,1-1,.59,1.05,1.05,0,0,0-.91-.52h-4.7a1.06,1.06,0,1,0,0,2.12h5.39a2.23,2.23,0,0,1,1.91,1.08.58.58,0,0,1-.2.8.57.57,0,0,1-.8-.2,1.05,1.05,0,0,0-.91-.52H13.39a1.06,1.06,0,1,0,0,2.11Z"/></g></g></g></svg>