<svg xmlns="http://www.w3.org/2000/svg" viewBox="0 0 23.97 23.97"><defs><style>.cls-1{fill:#d2a077;}.cls-2{fill:#f3d2a2;}.cls-3{fill:#4db5ff;}.cls-4{fill:#5dadec;}</style></defs><title>56-挥手</title><g id="图层_2" data-name="图层 2"><g id="图层_1-2" data-name="图层 1"><g id="页面-1"><path id="路径" class="cls-1" d="M3.24,6.07a1.85,1.85,0,0,1,2.13.11l-.64-.94a1.39,1.39,0,0,1,.41-2.06C5.88,2.66,8,4.06,8,4.06A1.55,1.55,0,0,1,8.3,1.83a1.67,1.67,0,0,1,2.31.41l6.94,9.82-.88,8.58-7.39-2.7L2.83,8.39A1.67,1.67,0,0,1,3.24,6.07Z"/><path class="cls-2" d="M1.8,11.53a1.3,1.3,0,0,1,.34-1.85A1.31,1.31,0,0,1,4,10l3.5,5.11a5.69,5.69,0,0,1,.4-.6L3,7.45a1.33,1.33,0,1,1,2.2-1.51L9.81,12.6c.17-.14.34-.28.52-.41L5,4.46a1.3,1.3,0,0,1,.35-1.85A1.3,1.3,0,0,1,7.23,3l5.3,7.73c.19-.12.39-.22.58-.33L8.16,3.12A1.3,1.3,0,0,1,8.5,1.27a1.32,1.32,0,0,1,1.86.35l5.23,7.63.8,1.16a6.69,6.69,0,0,0-1.73,9.27.66.66,0,0,0,.93.18,6.3,6.3,0,0,1,1.73-9.27l-1-4.87A1.34,1.34,0,0,1,18.91,5L20,8.33a29.6,29.6,0,0,0,1.55,3.88A8,8,0,0,1,7.83,20.33Z"/><g id="编组"><path class="cls-3" d="M8,21.33A5.78,5.78,0,0,1,2.64,16,.64.64,0,0,0,2,15.31a.68.68,0,0,0-.69.66A6.34,6.34,0,0,0,8,22.67a.7.7,0,0,0,.67-.7A.65.65,0,0,0,8,21.33Z"/><path id="形状" class="cls-3" d="M4.67,22.64a3.15,3.15,0,0,1-3.34-3.33.66.66,0,0,0-.66-.67.67.67,0,0,0-.67.67A4.56,4.56,0,0,0,4.67,24a.67.67,0,0,0,0-1.33ZM16,1.31a.66.66,0,0,0-.67.66.67.67,0,0,0,.67.67A5.52,5.52,0,0,1,21.33,8a.67.67,0,1,0,1.34,0A6.48,6.48,0,0,0,16,1.31Z"/><path class="cls-4" d="M19.33,0a.64.64,0,0,0-.66.64.69.69,0,0,0,.66.69,3.21,3.21,0,0,1,3.31,3.31.69.69,0,0,0,.69.67A.65.65,0,0,0,24,4.64,4.57,4.57,0,0,0,19.33,0Z"/></g></g></g></g></svg>