<svg xmlns="http://www.w3.org/2000/svg" viewBox="0 0 16.43 23.91"><defs><style>.cls-1{fill:#75c940;}.cls-2{fill:#b6e391;}.cls-3{fill:#d7f0c0;}.cls-4{fill:#56a32c;}.cls-5{fill:#d12231;}.cls-6{fill:#f83640;}</style></defs><title>33-凋谢</title><g id="图层_2" data-name="图层 2"><g id="图层_1-2" data-name="图层 1"><path id="路径" class="cls-1" d="M10.61,3.09S6.82-1.67,3.51.63c-2.45,1.7-2.44,4.81-2.2,6.31s1,5,1.46,8S3.56,20.44,4,23.5c.12.77,2.72.34,2.65-.41-.12-1.3-1.22-6-1.51-8S4.26,9.44,3.89,7.29C3.47,4.92,3.7,2.84,5.32,2.36,7.18,1.81,9,4.92,9,4.92l1.59-1.83Z"/><path class="cls-2" d="M4.15,10.9a6,6,0,0,1,1.91,1.2,5.1,5.1,0,0,1,.85,5.3c-.49,1.39.71,3.38.71,3.38A8.05,8.05,0,0,1,5.44,19a7.74,7.74,0,0,1-1.53-3.77,16.1,16.1,0,0,1,.24-4.33"/><path class="cls-3" d="M2.28,9.26A6.66,6.66,0,0,0,.12,12.44,9.14,9.14,0,0,0,2,19.66a11.72,11.72,0,0,1,1.17-3.61c.83-1.12.36-3.79,0-4.77-.26-.7-.93-2-.93-2"/><path class="cls-4" d="M11.92,5.45a1.93,1.93,0,0,1-2.67,0,1.92,1.92,0,0,1-.77-2.55,1.93,1.93,0,0,1,2.67,0,1.93,1.93,0,0,1,.77,2.55"/><path class="cls-4" d="M12.9,3.53c.56.85.07,2.17-1.1,2.94s-2.57.7-3.13-.16S8.6,4.14,9.76,3.37s2.57-.7,3.14.16"/><path id="形状" class="cls-4" d="M9.23,5.38a3.52,3.52,0,0,1-1.93,1s1.13.84,1.82.36.11-1.34.11-1.34m1.7-2.19c0-.55.88-1.53,1.32-1.28,0,0-.59.66,0,1.06s-1.28.22-1.28.22"/><path class="cls-5" d="M9.59,5.72c-1.19.64-2.26,2.16-1.7,5.07.48,2.51,2.61,3.54,1.9,5.22s.55,4.07,2.15.26c.51-1.19,1.88-6.18.52-9.24A2.07,2.07,0,0,0,9.59,5.72Z"/><path class="cls-6" d="M11,4.67c.88-1.29,2.16-1.45,3-.63,4,3.81,2.37,11.29-.34,12.91-1.6.95-.57-4.81-2.73-7.16A3.83,3.83,0,0,1,11,4.67"/></g></g></svg>