<svg xmlns="http://www.w3.org/2000/svg" xmlns:xlink="http://www.w3.org/1999/xlink" viewBox="0 0 24 24"><defs><style>.cls-1{fill:url(#未命名的渐变);}.cls-2{fill:#662e00;}.cls-3{fill:#fff;}.cls-4{fill:#f8353f;}</style><radialGradient id="未命名的渐变" cx="-239.36" cy="365.85" r="0.77" gradientTransform="matrix(24, 0, 0, -24, 5756.72, 8788.19)" gradientUnits="userSpaceOnUse"><stop offset="0" stop-color="#ffe5a3"/><stop offset="1" stop-color="#ffad29"/></radialGradient></defs><title>5-哇</title><g id="图层_2" data-name="图层 2"><g id="图层_1-2" data-name="图层 1"><g id="页面-1"><g id="第一排"><path id="路径" class="cls-1" d="M24,12A12,12,0,1,1,12,0,12,12,0,0,1,24,12"/><path class="cls-2" d="M12,14a27.85,27.85,0,0,1-6-.67c-.45-.08-1.33,0-1.33,1.34,0,2.66,3.06,6,7.33,6s7.33-3.34,7.33-6c0-1.34-.88-1.42-1.33-1.34A27.85,27.85,0,0,1,12,14Z"/><path class="cls-3" d="M6,14.67a21.13,21.13,0,0,0,6,.66,21.13,21.13,0,0,0,6-.66s-1.33,2.66-6,2.66S6,14.67,6,14.67Z"/><path id="形状" class="cls-4" d="M10.45,2.94l-3,.54L5.87.64A.85.85,0,0,0,5,.22a.84.84,0,0,0-.68.69l-.49,3.2-3,.54A.83.83,0,0,0,.58,6.22L3.29,7.51l-.5,3.21a.84.84,0,0,0,.82,1,.86.86,0,0,0,.6-.25L6.55,9.06l3,1.43a.84.84,0,0,0,1.09-1.16L9.08,6.49l2.11-2.14a.82.82,0,0,0,.15-1A.84.84,0,0,0,10.45,2.94Zm3.1,0,3,.54L18.13.64A.85.85,0,0,1,19,.22a.84.84,0,0,1,.68.69l.49,3.2,3,.54a.83.83,0,0,1,.21,1.57L20.71,7.51l.5,3.21a.84.84,0,0,1-.82,1,.86.86,0,0,1-.6-.25L17.45,9.06l-3,1.43a.84.84,0,0,1-1.09-1.16l1.57-2.84L12.81,4.35a.82.82,0,0,1-.15-1A.84.84,0,0,1,13.55,2.94Z"/></g></g></g></g></svg>