<svg xmlns="http://www.w3.org/2000/svg" viewBox="0 0 15.37 22.7"><defs><style>.cls-1{fill:#d2a077;}.cls-2{fill:#f3d2a2;}</style></defs><title>42-耶</title><g id="图层_2" data-name="图层 2"><g id="图层_1-2" data-name="图层 1"><path id="路径" class="cls-1" d="M13.71,11.06a2.58,2.58,0,0,0-.6-.44l-.28-.93-5.49,0-.21.75a2.37,2.37,0,0,0-1,.49L3.7,8.18a1.6,1.6,0,0,0-1,1.47v.65L0,13.16v1.5L6.86,22s7.21-10.48,7.23-10.46A3,3,0,0,0,13.71,11.06Z"/><g id="编组"><path id="形状" class="cls-2" d="M12.06,10.36H7.54a2.71,2.71,0,0,0-.41,0l0-.19L4.83,1.67A1.35,1.35,0,0,1,5.89,0,1.33,1.33,0,0,1,7.51,1.1L9.64,9l.89.07L12,1.89a1.37,1.37,0,0,1,2.73.26L13.26,9.8l-.15.82A2.33,2.33,0,0,0,12.06,10.36ZM1.31,9h.12A1.31,1.31,0,0,1,2.74,10.3v2.86a1.31,1.31,0,0,1-1.31,1.32H1.31A1.32,1.32,0,0,1,0,13.16V10.3A1.31,1.31,0,0,1,1.31,9Zm4.75,2,0,0a2,2,0,0,0-.53,1.36.62.62,0,0,0,0,.13A2,2,0,0,0,6,13.76a1.08,1.08,0,0,1-.18.24,1.34,1.34,0,0,1-1,.48A1.37,1.37,0,0,1,3.43,13.1V9a1.36,1.36,0,0,1,.27-.81,1.34,1.34,0,0,1,1.1-.56A1.37,1.37,0,0,1,6.17,9V10.9a1.31,1.31,0,0,0-.11.12Z"/><path class="cls-2" d="M1.41,15.16a2,2,0,0,0,1.68-.9,3.17,3.17,0,0,0,.3.34,2.07,2.07,0,0,0,2.86-.06,2.3,2.3,0,0,0,.28-.34h0a1.5,1.5,0,0,0,1,.28H9.28a4.48,4.48,0,0,0-.7.68A6.46,6.46,0,0,0,7.2,19.28a.34.34,0,0,0,.34.34.35.35,0,0,0,.35-.34,5.45,5.45,0,0,1,1.63-4.12,2.61,2.61,0,0,1,1.71-.68c.49,0,.58-.69.08-.69H7.54a1.37,1.37,0,0,1,0-2.74H13a1.4,1.4,0,0,1,1.31,1l.75,2.46a7.32,7.32,0,0,1,.28,1.5c0,3.3-3.22,6.72-7.14,6.72a8.22,8.22,0,0,1-8.22-8H0a2,2,0,0,0,1.31.49Z"/></g></g></g></svg>